<svg width="212" height="79" viewBox="0 0 212 79" fill="none" xmlns="http://www.w3.org/2000/svg">
<path d="M43.9004 50.5688H18.1L13.1781 62.4767H0L24.7684 6.90657H37.4701L62.3179 62.4767H48.8223L43.9004 50.5688ZM39.8517 40.8043L31.0399 19.5289L22.2281 40.8043H39.8517Z" fill="#1A35B6"/>
<path d="M110.882 19.7671V55.332C110.882 63.1647 108.844 68.9863 104.769 72.7969C100.694 76.6074 94.7398 78.5126 86.9071 78.5126C82.779 78.5126 78.8626 78.0099 75.158 77.0043C71.4533 75.9988 68.3837 74.5434 65.9492 72.6381L70.8711 63.7469C72.6705 65.2287 74.9463 66.3931 77.6983 67.2398C80.4504 68.1396 83.2024 68.5894 85.9545 68.5894C90.2413 68.5894 93.3903 67.6103 95.4014 65.6521C97.4654 63.7469 98.4974 60.8361 98.4974 56.9197V55.0938C95.2691 58.6397 90.7705 60.4127 85.0018 60.4127C81.0855 60.4127 77.4866 59.5659 74.2053 57.8723C70.977 56.1258 68.4102 53.6913 66.5049 50.5688C64.5996 47.4463 63.647 43.8475 63.647 39.7723C63.647 35.6972 64.5996 32.0984 66.5049 28.9759C68.4102 25.8533 70.977 23.4453 74.2053 21.7517C77.4866 20.0052 81.0855 19.132 85.0018 19.132C91.1939 19.132 95.9042 21.1696 99.1325 25.2447V19.7671H110.882ZM87.4628 50.2513C90.7441 50.2513 93.4167 49.2986 95.4808 47.3934C97.5977 45.4352 98.6562 42.8948 98.6562 39.7723C98.6562 36.6498 97.5977 34.1359 95.4808 32.2307C93.4167 30.2725 90.7441 29.2934 87.4628 29.2934C84.1815 29.2934 81.4824 30.2725 79.3654 32.2307C77.2485 34.1359 76.19 36.6498 76.19 39.7723C76.19 42.8948 77.2485 45.4352 79.3654 47.3934C81.4824 49.2986 84.1815 50.2513 87.4628 50.2513Z" fill="#1A35B6"/>
<path d="M122.408 19.7671H134.792V62.4767H122.408V19.7671ZM128.6 13.8131C126.324 13.8131 124.472 13.1516 123.043 11.8285C121.614 10.5054 120.9 8.86476 120.9 6.90657C120.9 4.94839 121.614 3.30775 123.043 1.98465C124.472 0.66155 126.324 0 128.6 0C130.876 0 132.728 0.635089 134.157 1.90527C135.586 3.17544 136.301 4.76316 136.301 6.66842C136.301 8.73245 135.586 10.4525 134.157 11.8285C132.728 13.1516 130.876 13.8131 128.6 13.8131Z" fill="#1A35B6"/>
<path d="M146.286 3.57237H158.67V62.4767H146.286V3.57237Z" fill="#1A35B6"/>
<path d="M212 41.2807C212 41.4394 211.921 42.5508 211.762 44.6149H179.452C180.034 47.2611 181.41 49.3516 183.58 50.8864C185.75 52.4212 188.449 53.1885 191.677 53.1885C193.9 53.1885 195.858 52.871 197.552 52.2359C199.298 51.5479 200.912 50.4894 202.394 49.0605L208.983 56.2052C204.961 60.8096 199.087 63.1118 191.36 63.1118C186.544 63.1118 182.283 62.1856 178.579 60.3333C174.874 58.428 172.016 55.8083 170.005 52.4741C167.994 49.1399 166.988 45.3558 166.988 41.1219C166.988 36.9409 167.967 33.1833 169.925 29.8491C171.937 26.462 174.662 23.8422 178.102 21.9899C181.595 20.0846 185.485 19.132 189.772 19.132C193.953 19.132 197.737 20.0317 201.124 21.8311C204.511 23.6305 207.157 26.2238 209.063 29.6109C211.021 32.9451 212 36.835 212 41.2807ZM189.851 28.4995C187.046 28.4995 184.691 29.2934 182.786 30.8811C180.881 32.4688 179.716 34.6387 179.293 37.3908H200.33C199.907 34.6916 198.743 32.5482 196.837 30.9605C194.932 29.3199 192.603 28.4995 189.851 28.4995Z" fill="#1A35B6"/>
</svg>
