<svg width="23" height="24" viewBox="0 0 23 24" fill="none" xmlns="http://www.w3.org/2000/svg">
<path d="M5.29921 2.41533C7.43041 2.00157 9.47545 1.28925 11.5282 1.26621C17.1823 1.20237 21.9984 5.98725 22.2665 11.6237C22.5487 17.5555 18.2438 22.5614 12.2753 23.2423C6.76801 23.8706 1.44841 19.8357 0.408012 14.2824C-0.0760684 11.6978 0.264012 9.24141 1.58113 6.99045C2.20009 5.93253 2.47537 4.88901 2.36713 3.70245C2.34553 3.46461 2.37145 3.22269 2.36305 2.98293C2.32657 1.96221 2.43001 0.998613 3.67729 0.777573C4.56241 0.621093 5.09785 1.26909 5.29921 2.41533ZM2.27281 7.74813C0.0852091 11.9613 1.26361 17.1801 5.00665 20.1228C8.81233 23.1146 14.22 22.9929 17.8255 19.8338C21.5664 16.5561 22.4009 11.2375 19.8341 6.98373C18.5633 4.87773 16.7357 3.43125 14.4173 2.66709C10.7523 1.45917 7.44049 2.35701 4.27705 4.80693C4.27705 3.84957 4.31833 3.17157 4.25545 2.50365C4.23241 2.25717 4.28013 1.80024 3.80786 1.79973C3.33558 1.79922 3.36361 2.27085 3.35209 2.51637C3.30121 3.59349 3.27553 4.67901 3.36529 5.75109C3.38881 6.03309 3.84121 6.47949 4.12585 6.50349C5.19793 6.59349 6.28297 6.56661 7.36057 6.52053C7.60585 6.50997 8.07961 6.50349 8.07961 6.10101C8.07961 5.62557 7.62721 5.66493 7.37353 5.62557C6.73849 5.52741 6.08713 5.53413 5.25001 5.48829C5.53441 5.18061 5.62489 5.05125 5.74417 4.95861C9.50785 2.03205 14.9722 2.63109 18.1733 6.31773C21.2851 9.90165 21.0348 15.3537 17.604 18.7142C14.1737 22.074 8.70817 22.21 5.20369 19.0228C2.33257 16.4116 1.40929 12.6605 2.72809 8.95725C2.90665 8.45613 3.31753 7.88133 2.27281 7.74813ZM7.28013 16.3202C7.64013 16.6802 7.76013 16.5602 7.96585 16.4292C8.71081 15.6002 9.42625 14.7425 10.2067 13.9483C11.7214 12.407 11.7322 12.4216 11.7221 10.3135C11.7144 8.71797 11.7439 7.12173 11.6981 5.52741C11.6892 5.21541 11.7313 4.60317 11.2577 4.60317C10.7457 4.60317 10.7928 5.19117 10.7837 5.49213C10.7354 7.08621 10.7837 8.76024 10.7601 10.3202C10.7837 12.1202 10.7601 11.8802 9.43153 13.3221C8.85457 13.9483 8.18929 14.554 7.62505 15.2222C7.44097 15.4404 6.92013 15.8402 7.28013 16.3202Z" fill="#1A35B6"/>
</svg>
