<svg width="34" height="34" viewBox="0 0 34 34" fill="none" xmlns="http://www.w3.org/2000/svg">
<path fill-rule="evenodd" clip-rule="evenodd" d="M25.456 8.48528C26.0672 9.09654 26.0672 10.0876 25.456 10.6988L19.1843 16.9706L25.456 23.2423C26.0672 23.8535 26.0672 24.8446 25.456 25.4558C24.8447 26.0671 23.8537 26.0671 23.2424 25.4558L16.9707 19.1841L10.699 25.4558C10.0877 26.0671 9.09668 26.0671 8.48542 25.4558C7.87417 24.8446 7.87417 23.8535 8.48542 23.2423L14.7572 16.9706L8.48542 10.6988C7.87417 10.0876 7.87417 9.09654 8.48542 8.48528C9.09668 7.87403 10.0877 7.87403 10.699 8.48528L16.9707 14.757L23.2424 8.48528C23.8537 7.87403 24.8447 7.87403 25.456 8.48528Z" fill="white"/>
</svg>
