<svg width="21" height="23" viewBox="0 0 21 23" fill="none" xmlns="http://www.w3.org/2000/svg">
<path d="M17.3999 23.2397C16.4399 23.4797 16.4399 23.4797 15.4799 23.2397C13.7999 22.5197 12.7079 22.2204 11.1563 22.2576C8.04232 22.332 4.92544 22.2816 1.80976 22.2773C1.42672 22.2768 1.04368 22.2432 0.688721 22.2262C0.688721 14.8267 0.688721 7.5413 0.688721 0.200662C4.28896 0.200662 7.80112 0.183379 11.3126 0.226099C11.6841 0.230659 12.1218 0.516023 12.4089 0.794663C14.0426 2.3801 15.669 3.97563 17.2274 5.63426C17.5866 6.01658 17.8314 6.65186 17.8511 7.1813C17.9238 9.13586 17.86 11.0952 17.8998 13.0517C17.9066 13.3822 18.0868 13.8929 18.3311 14.0045C19.8724 14.7084 20.679 15.9809 21.2399 17.4799C21.4643 18.0797 21.4445 18.7685 21.2399 19.3999C20.6135 21.3331 19.3329 22.6126 17.3999 23.2397ZM20.2041 18.9195C19.2062 18.9195 18.6335 18.9355 17.3764 18.9355C15.9599 18.9197 15.9602 18.9195 15.941 17.551C15.9599 16.6397 15.9602 15.666 15.9602 14.7022C13.8052 15.1104 12.4898 16.7172 12.6033 18.667C12.7118 20.5296 14.295 22.1364 16.1582 22.2751C18.0902 22.4187 19.6962 21.1459 20.2041 18.9195ZM12.2001 1.95987C12.2001 3.40059 12.2001 4.6457 12.2001 5.85146C13.5134 5.85146 14.7431 5.85146 15.9981 5.85146C14.7323 4.5545 13.5374 3.33003 12.2001 1.95987ZM16.9653 17.9609C17.6078 17.9609 18.1206 17.9609 18.6335 17.9609C19.1534 17.9609 19.673 17.9609 20.2384 17.9609C19.6934 15.8904 18.664 14.9311 16.9655 14.7583C16.9653 15.7812 16.9653 16.8012 16.9653 17.9609Z" fill="#1A35B6"/>
</svg>
