<svg width="212" height="48" viewBox="0 0 212 48" fill="none" xmlns="http://www.w3.org/2000/svg">
<g clip-path="url(#clip0)">
<path d="M58.75 1.92358H68.5278V21.3522L86.5594 1.92358H98.3689L80.2738 20.7806L99.1943 46.3682H87.4482L73.6707 27.4478L68.5278 32.7807V46.3679H58.75V1.92358Z" fill="#000400"/>
<path d="M93.9978 29.5424V29.4161C93.9978 19.6381 101.871 11.7014 112.474 11.7014C123.014 11.7014 130.824 19.5112 130.824 29.2889V29.4161C130.824 39.1939 122.95 47.1299 112.347 47.1299C101.808 47.1299 93.9978 39.3205 93.9978 29.5424ZM121.3 29.5424V29.4161C121.3 24.3997 117.681 20.019 112.347 20.019C106.823 20.019 103.522 24.2725 103.522 29.2889V29.4161C103.522 34.4319 107.141 38.8126 112.474 38.8126C117.998 38.8126 121.3 34.5588 121.3 29.5424Z" fill="#000400"/>
<path d="M133.488 36.7174V20.5903H129.424V12.3368H133.488V3.63787H143.139V12.3365H151.139V20.5903H143.139V35.1304C143.139 37.3522 144.091 38.4319 146.25 38.4319C147.914 38.44 149.552 38.0246 151.012 37.225V44.9713C148.98 46.1776 146.631 46.9396 143.393 46.9396C137.488 46.9396 133.488 44.5903 133.488 36.7174ZM153.909 0.0187988H163.56V46.368H153.909V0.0187988ZM167.048 0.0187988H177.207V8.5902H167.048V0.0187988ZM167.303 12.3365H176.953V46.368H167.302L167.303 12.3365ZM180.624 12.3365H190.275V17.1616C192.498 14.3045 195.355 11.7014 200.243 11.7014C207.545 11.7014 211.799 16.5268 211.799 24.3366V46.368H202.148V27.3841C202.148 22.8127 199.989 20.4635 196.307 20.4635C192.624 20.4635 190.275 22.8127 190.275 27.3841V46.368H180.624L180.624 12.3365Z" fill="#000400"/>
<path d="M22.3103 1.90137L0 25.3633V46.3375L22.2779 24.0203L44.4361 1.90137H22.3103Z" fill="url(#paint0_linear)"/>
<path d="M0 46.3375L22.2779 24.0204L44.4361 46.3375H0Z" fill="url(#paint1_linear)"/>
<path d="M0 1.90137H22.3103L0 25.3633V1.90137Z" fill="url(#paint2_linear)"/>
</g>
<defs>
<linearGradient id="paint0_linear" x1="-7.48124" y1="42.7558" x2="33.8688" y2="1.40544" gradientUnits="userSpaceOnUse">
<stop offset="0.108" stop-color="#C757BC"/>
<stop offset="0.173" stop-color="#CD5CA9"/>
<stop offset="0.492" stop-color="#E8744F"/>
<stop offset="0.716" stop-color="#F88316"/>
<stop offset="0.823" stop-color="#FF8900"/>
</linearGradient>
<linearGradient id="paint1_linear" x1="14.1817" y1="54.3546" x2="34.3365" y2="34.1995" gradientUnits="userSpaceOnUse">
<stop offset="0.296" stop-color="#00AFFF"/>
<stop offset="0.694" stop-color="#5282FF"/>
<stop offset="1" stop-color="#945DFF"/>
</linearGradient>
<linearGradient id="paint2_linear" x1="-37.9051" y1="1058.72" x2="1016.97" y2="55.6299" gradientUnits="userSpaceOnUse">
<stop offset="0.296" stop-color="#00AFFF"/>
<stop offset="0.694" stop-color="#5282FF"/>
<stop offset="1" stop-color="#945DFF"/>
</linearGradient>
<clipPath id="clip0">
<rect width="212" height="47.1488" fill="white"/>
</clipPath>
</defs>
</svg>
