<svg width="188" height="165" viewBox="0 0 188 165" fill="none" xmlns="http://www.w3.org/2000/svg">
<path opacity="0.1" d="M152.397 156.15C165.674 156.15 176.437 154.305 176.437 152.029C176.437 149.752 165.674 147.907 152.397 147.907C139.12 147.907 128.357 149.752 128.357 152.029C128.357 154.305 139.12 156.15 152.397 156.15Z" fill="#1A35B6"/>
<path opacity="0.1" d="M79.61 150.507C99.2663 150.507 115.201 149.384 115.201 147.998C115.201 146.612 99.2663 145.489 79.61 145.489C59.9538 145.489 44.0193 146.612 44.0193 147.998C44.0193 149.384 59.9538 150.507 79.61 150.507Z" fill="#1A35B6"/>
<path opacity="0.5" d="M58.1646 6.45142C64.5386 0.79005 74.5444 -0.362781 83.6444 0.0886772C112.246 1.49948 138.064 15.267 160.397 30.8322C168.486 36.4754 176.441 42.5399 181.689 50.3013C192.372 66.0984 189.203 87.9901 174.348 100.996C169.293 105.43 163.167 108.818 156.876 111.827C145.694 117.178 133.621 121.473 120.934 122.694C111.882 123.567 102.718 122.857 93.719 121.642C68.579 118.244 43.902 110.728 23.223 97.8718C14.1514 92.2285 5.59952 85.2229 1.86047 76.105C-1.87858 66.9872 0.515708 55.4226 9.77739 50.0232C13.6196 47.7901 18.1897 46.7824 22.675 45.8351C29.2755 44.4404 35.9831 43.0659 41.9405 40.2322C48.0961 37.3018 55.376 31.6404 54.1627 25.1628C52.8483 18.2075 51.7987 12.1047 58.1646 6.45142Z" fill="#FEC2BE"/>
<g opacity="0.1">
<path opacity="0.1" d="M82.2328 130.266C83.0093 131.582 84.2267 132.43 85.5977 132.43C87.9394 132.43 89.8443 129.958 89.8443 126.904C89.8443 123.851 87.9334 121.398 85.5977 121.398C84.4956 121.398 83.4906 121.946 82.7363 122.847C82.4503 123.192 82.2078 123.57 82.0144 123.974L81.9739 124.214C81.9739 124.214 81.07 124.983 79.8385 124.276V106.375H62.302C62.1601 106.19 62.0665 105.972 62.0295 105.742C61.9924 105.512 62.0131 105.277 62.0896 105.057C62.2206 104.648 62.5034 104.304 62.8803 104.095C64.2008 103.322 65.0542 102.108 65.0542 100.742C65.0542 98.4079 62.5709 96.5093 59.5093 96.5093C56.4477 96.5093 53.9644 98.4018 53.9644 100.742C53.9644 101.84 54.5165 102.844 55.4204 103.596C55.7659 103.88 56.1448 104.121 56.5488 104.313L56.5731 104.353C56.8383 104.609 57.0142 104.943 57.075 105.306C57.1357 105.668 57.0782 106.041 56.9108 106.369H49.002V139.519C49.002 141.603 49.8329 143.603 51.3119 145.077C52.7909 146.551 54.7969 147.379 56.8885 147.379H79.8446V129.788C80.0317 129.611 80.2642 129.489 80.5166 129.436C80.7689 129.383 81.0312 129.4 81.2743 129.486C81.682 129.614 82.0249 129.893 82.2328 130.266Z" fill="black"/>
<path opacity="0.1" d="M52.7189 105.678H55.465C54.7974 105.166 54.2554 104.51 53.8801 103.759C53.5048 103.008 53.3062 102.181 53.2993 101.342C53.2993 98.2003 56.0495 95.6548 59.4407 95.6548C62.8319 95.6548 65.5841 98.2003 65.5841 101.342C65.5772 102.181 65.3786 103.008 65.0033 103.759C64.628 104.51 64.086 105.166 63.4184 105.678H79.8791V88.0162C80.0672 87.841 80.2998 87.7202 80.5518 87.667C80.8037 87.6137 81.0654 87.6299 81.3088 87.7139C81.7204 87.8435 82.0664 88.1256 82.2754 88.502C83.0499 89.818 84.2673 90.6665 85.6403 90.6665C87.982 90.6665 89.887 88.1936 89.887 85.1422C89.887 82.0909 87.9901 79.6159 85.6403 79.6159C84.5362 79.6159 83.5312 80.1661 82.7769 81.065C82.4917 81.4103 82.2493 81.7886 82.055 82.1916L82.0165 82.2158C81.7455 82.4978 81.3862 82.6796 80.9978 82.7313C80.6094 82.7829 80.2149 82.7013 79.8791 82.5V64.6029H62.9957C62.8539 64.4177 62.7603 64.2005 62.7232 63.9705C62.6862 63.7405 62.7068 63.5049 62.7834 63.2848C62.9135 62.8751 63.1965 62.5309 63.5741 62.3234C64.8946 61.5515 65.7459 60.3362 65.7459 58.9697C65.7459 56.6359 63.2647 54.7373 60.2031 54.7373C57.1414 54.7373 54.6582 56.6298 54.6582 58.9697C54.6582 60.0702 55.2102 61.0718 56.1122 61.8236C56.4586 62.1078 56.8381 62.3494 57.2426 62.5431L57.2668 62.5814C57.532 62.8372 57.7079 63.1709 57.7687 63.5337C57.8295 63.8965 57.772 64.2691 57.6045 64.5968H52.7189V63.6899H56.3265C55.6602 63.1794 55.1191 62.5245 54.7442 61.7749C54.3694 61.0252 54.1705 60.2003 54.1627 59.3628C54.1627 56.2207 56.9129 53.6732 60.3062 53.6732C63.6994 53.6732 66.4476 56.2207 66.4476 59.3628C66.4396 60.2022 66.2396 61.0288 65.8629 61.7796C65.4862 62.5305 64.9427 63.1859 64.2738 63.6959H79.8649V45.819C80.0526 45.6422 80.2855 45.5205 80.5381 45.4671C80.7907 45.4138 81.0532 45.4309 81.2966 45.5167C81.7074 45.6469 82.0526 45.9288 82.2612 46.3047C83.0357 47.6208 84.2551 48.4693 85.6262 48.4693C87.9679 48.4693 89.8728 45.9964 89.8728 42.943C89.8728 39.8896 87.976 37.4186 85.6262 37.4186C84.5221 37.4186 83.517 37.9668 82.7627 38.8677C82.4767 39.2124 82.2342 39.5908 82.0408 39.9944L82.0024 40.2342C82.0024 40.2342 81.0985 41.0041 79.8649 40.2967V23.623H56.919C54.8274 23.623 52.8214 24.4511 51.3423 25.9252C49.8633 27.3992 49.0324 29.3985 49.0324 31.4832V39.9924H48.9131C48.7903 39.9924 48.6725 40.041 48.5857 40.1275C48.4988 40.2141 48.45 40.3315 48.45 40.4539V44.4848C48.4506 44.607 48.4995 44.7241 48.5862 44.8105C48.673 44.897 48.7905 44.9458 48.9131 44.9463H49.0324V49.0618H48.8767C48.7537 49.0618 48.6357 49.1104 48.5485 49.1969C48.4614 49.2834 48.4121 49.4008 48.4116 49.5234V57.2203C48.4121 57.3429 48.4614 57.4603 48.5485 57.5468C48.6357 57.6333 48.7537 57.6819 48.8767 57.6819H49.0324V60.705H48.905C48.7822 60.705 48.6644 60.7537 48.5776 60.8402C48.4907 60.9268 48.4419 61.0442 48.4419 61.1666V63.6456H48.3408V68.8696C48.3406 68.9303 48.3524 68.9904 48.3755 69.0465C48.3987 69.1026 48.4328 69.1536 48.4759 69.1965C48.5189 69.2394 48.5701 69.2734 48.6264 69.2965C48.6827 69.3196 48.743 69.3314 48.8039 69.3311H48.9414V105.678H52.7189Z" fill="black"/>
<path opacity="0.1" d="M112.724 52.1676C112.724 52.045 112.675 51.9274 112.588 51.8406C112.501 51.7537 112.384 51.7046 112.261 51.7041H111.982V51.1982H111.83V31.0942C111.83 30.1016 111.634 29.1187 111.253 28.2016C110.872 27.2845 110.314 26.4512 109.609 25.7494C108.905 25.0475 108.069 24.4908 107.149 24.1111C106.229 23.7313 105.243 23.536 104.247 23.5363H81.4968V38.8536C82.0165 38.1663 82.6882 37.6078 83.4599 37.2215C84.2315 36.8352 85.0822 36.6316 85.9457 36.6266C89.1225 36.6266 91.6988 39.3696 91.6988 42.7515C91.6988 46.1334 89.1225 48.8764 85.9457 48.8764C85.0821 48.8717 84.2314 48.6682 83.4597 48.2819C82.688 47.8956 82.0163 47.3369 81.4968 46.6494V63.6456H99.8989C99.2321 63.1329 98.691 62.4759 98.3165 61.7241C97.942 60.9724 97.7439 60.1456 97.7371 59.3063C97.7371 56.1602 100.481 53.6107 103.868 53.6107C105.374 53.6023 106.834 54.1265 107.988 55.09C108.621 55.5945 109.133 56.2346 109.484 56.9629C109.836 57.6913 110.018 58.4891 110.018 59.2973C110.018 60.1054 109.836 60.9033 109.484 61.6316C109.133 62.3599 108.621 63 107.988 63.5045V63.6395H111.982V63.6254H112.724V52.1676Z" fill="black"/>
<path opacity="0.1" d="M106.615 104.773V102.757C106.698 102.636 106.774 102.51 106.843 102.38C107.114 101.889 107.257 101.338 107.26 100.778C107.259 100.404 107.195 100.034 107.07 99.6816C106.959 99.368 106.806 99.0709 106.615 98.7989C105.682 97.4626 103.84 96.5516 101.717 96.5516C98.6533 96.5516 96.1721 98.4441 96.1721 100.784C96.1721 101.884 96.7241 102.886 97.626 103.638C97.9725 103.922 98.352 104.164 98.7564 104.357L98.7807 104.396C99.0456 104.652 99.2213 104.985 99.2821 105.348C99.3429 105.711 99.2855 106.083 99.1184 106.411H81.2786V122.938C81.7909 122.255 82.4549 121.699 83.2187 121.314C83.9824 120.93 84.8252 120.727 85.6809 120.721C88.8335 120.721 91.3875 123.462 91.3875 126.842C91.3875 130.222 88.8335 132.965 85.6809 132.965C84.8252 132.959 83.9824 132.756 83.2187 132.371C82.4549 131.986 81.7909 131.431 81.2786 130.748V144.088H101.749C103.038 144.088 104.273 143.579 105.185 142.672C106.097 141.765 106.611 140.535 106.615 139.251V106.417V139.229C106.615 140.515 106.102 141.748 105.19 142.657C104.277 143.567 103.04 144.078 101.749 144.078H81.2786V147.302H102.512C104.603 147.302 106.609 146.474 108.088 145C109.567 143.526 110.398 141.527 110.398 139.442V106.417V105.551H106.615V104.773Z" fill="black"/>
</g>
<path d="M57.8533 143.338C56.5629 143.338 55.3254 142.827 54.4129 141.918C53.5005 141.008 52.9879 139.775 52.9879 138.489V105.569H49.2043V138.713C49.2043 140.797 50.0352 142.797 51.5143 144.271C52.9933 145.745 54.9993 146.573 57.0909 146.573H80.047V143.348L57.8533 143.338Z" fill="#3A3768"/>
<path d="M81.4624 128.68C81.8738 128.809 82.2193 129.091 82.427 129.468C83.2035 130.784 84.4209 131.632 85.7919 131.632C88.1336 131.632 90.0386 129.159 90.0386 126.106C90.0386 123.053 88.1357 120.592 85.8 120.592C84.6979 120.592 83.6929 121.14 82.9386 122.041C82.6526 122.386 82.4101 122.764 82.2167 123.168L82.1762 123.407C82.1762 123.407 81.2723 124.177 80.0408 123.47V105.569H62.5043C62.3624 105.384 62.2688 105.166 62.2318 104.936C62.1947 104.706 62.2154 104.471 62.2919 104.251C62.4229 103.841 62.7057 103.498 63.0826 103.289C64.4031 102.515 65.2565 101.302 65.2565 99.9356C65.2565 97.6017 62.7732 95.7031 59.7116 95.7031C56.65 95.7031 54.1667 97.5956 54.1667 99.9356C54.1667 101.034 54.7188 102.038 55.6227 102.789C55.9682 103.073 56.3471 103.314 56.7511 103.507L56.7754 103.547C57.0406 103.803 57.2165 104.137 57.2773 104.5C57.338 104.862 57.2805 105.235 57.1131 105.563H52.9878V138.489C52.9878 139.775 53.5004 141.008 54.4128 141.918C55.3253 142.827 56.5628 143.338 57.8532 143.338H80.0469V128.982C80.2326 128.808 80.4627 128.687 80.7123 128.634C80.9618 128.581 81.2213 128.597 81.4624 128.68Z" fill="#0057FF"/>
<path d="M49.1375 62.8233H48.5369V63.7987H49.1375V62.8233Z" fill="#3A3768"/>
<path d="M52.9209 62.8233H49.6389V63.7987H52.9209V62.8233Z" fill="#3A3768"/>
<path d="M49.639 62.8233H49.1375V63.7987H49.639V62.8233Z" fill="#3A3768"/>
<path d="M49.0002 68.5088H49.1377V63.7967H48.531V68.0473C48.5307 68.1085 48.5427 68.1691 48.5663 68.2256C48.5898 68.2821 48.6245 68.3334 48.6682 68.3764C48.7119 68.4194 48.7638 68.4533 48.8208 68.476C48.8778 68.4987 48.9388 68.5099 49.0002 68.5088Z" fill="#3A3768"/>
<path d="M52.921 63.7967H49.639V68.0473C49.639 68.1081 49.6269 68.1682 49.6035 68.2244C49.5801 68.2805 49.5458 68.3315 49.5026 68.3743C49.4594 68.4172 49.4081 68.4512 49.3517 68.4743C49.2953 68.4973 49.2348 68.5091 49.1738 68.5088H49.1375V104.871H52.921V63.7967Z" fill="#3A3768"/>
<path d="M49.1375 68.5088H49.1739C49.2348 68.5091 49.2953 68.4973 49.3517 68.4743C49.4081 68.4512 49.4594 68.4172 49.5026 68.3743C49.5458 68.3315 49.5801 68.2805 49.6035 68.2244C49.6269 68.1682 49.639 68.1081 49.639 68.0473V63.7967H49.1375V68.5088Z" fill="#3A3768"/>
<path d="M53.5013 100.528C53.5013 97.386 56.2515 94.8405 59.6427 94.8405C63.0339 94.8405 65.7861 97.386 65.7861 100.528C65.7804 101.369 65.5824 102.197 65.2071 102.949C64.8318 103.702 64.2891 104.359 63.6204 104.871H80.0811V87.2101C80.2692 87.0348 80.5018 86.9141 80.7538 86.8608C81.0057 86.8075 81.2674 86.8238 81.5108 86.9078C81.9224 87.0373 82.2684 87.3194 82.4774 87.6958C83.2519 89.0119 84.4693 89.8604 85.8423 89.8604C88.184 89.8604 90.089 87.3874 90.089 84.3361C90.089 81.2847 88.1921 78.8097 85.8423 78.8097C84.7382 78.8097 83.7332 79.3599 82.9789 80.2588C82.6937 80.6041 82.4513 80.9824 82.257 81.3855L82.2185 81.4096C81.9475 81.6917 81.5882 81.8734 81.1998 81.9251C80.8114 81.9767 80.4169 81.8952 80.0811 81.6938V63.7967H63.1977C63.0559 63.6116 62.9623 63.3943 62.9252 63.1643C62.8882 62.9343 62.9089 62.6987 62.9854 62.4786C63.1155 62.0689 63.3985 61.7248 63.7761 61.5173C65.0966 60.7453 65.9479 59.53 65.9479 58.1636C65.9479 55.8297 63.4667 53.9311 60.4051 53.9311C57.3435 53.9311 54.8602 55.8236 54.8602 58.1636C54.8602 59.264 55.4123 60.2657 56.3142 61.0174C56.6606 61.3016 57.0401 61.5432 57.4446 61.7369L57.4688 61.7752C57.734 62.031 57.9099 62.3648 57.9707 62.7275C58.0315 63.0903 57.974 63.4629 57.8065 63.7907H52.9209V104.871H55.6671C54.9983 104.359 54.4557 103.702 54.0803 102.949C53.705 102.197 53.507 101.369 53.5013 100.528Z" fill="#0057FF"/>
<path d="M49.74 60.2778C49.74 60.217 49.728 60.1568 49.7046 60.1007C49.6812 60.0445 49.6469 59.9936 49.6037 59.9507C49.5605 59.9078 49.5092 59.8739 49.4528 59.8508C49.3963 59.8277 49.3359 59.816 49.2749 59.8162H49.2385V62.8233H49.74V60.2778Z" fill="#3A3768"/>
<path d="M49.2204 39.1822H49.1193C49.0585 39.1822 48.9983 39.1941 48.9421 39.2173C48.8859 39.2405 48.8349 39.2745 48.7919 39.3173C48.7489 39.3602 48.7148 39.4111 48.6915 39.4671C48.6682 39.5231 48.6562 39.5831 48.6562 39.6437V43.6746C48.6568 43.7968 48.7057 43.9139 48.7925 44.0003C48.8792 44.0868 48.9967 44.1356 49.1193 44.1361H49.2386V39.1842L49.2204 39.1822Z" fill="#3A3768"/>
<path d="M49.0828 48.2476C48.9598 48.2476 48.8418 48.2962 48.7546 48.3827C48.6674 48.4692 48.6182 48.5865 48.6177 48.7091V56.4061C48.6182 56.5287 48.6674 56.6461 48.7546 56.7326C48.8418 56.8191 48.9598 56.8676 49.0828 56.8676H49.2385V48.2476H49.0828Z" fill="#3A3768"/>
<path d="M49.2386 59.8827H49.1071C48.9843 59.8827 48.8665 59.9314 48.7797 60.0179C48.6928 60.1045 48.644 60.2219 48.644 60.3443V62.8898H49.2507L49.2386 59.8827Z" fill="#3A3768"/>
<path d="M49.2384 30.675V39.1842C49.3579 39.1884 49.471 39.2386 49.554 39.3243C49.637 39.4101 49.6834 39.5246 49.6833 39.6437V43.6746C49.6829 43.7936 49.6364 43.9078 49.5535 43.9934C49.4706 44.079 49.3577 44.1294 49.2384 44.1341V48.2496H49.3092C49.37 48.2496 49.4302 48.2616 49.4864 48.2848C49.5426 48.308 49.5936 48.3419 49.6366 48.3848C49.6796 48.4277 49.7138 48.4785 49.737 48.5345C49.7603 48.5905 49.7723 48.6506 49.7723 48.7112V56.4081C49.7723 56.5305 49.7235 56.6479 49.6366 56.7345C49.5498 56.821 49.432 56.8697 49.3092 56.8697H49.2344V59.8928H49.2708C49.3938 59.8928 49.5118 59.9414 49.5989 60.0279C49.6861 60.1144 49.7353 60.2318 49.7359 60.3544V62.8898H53.0179V30.9047C53.0179 29.619 53.5302 28.3859 54.4422 27.4766C55.3543 26.5673 56.5913 26.0561 57.8813 26.0556H64.4757V26.8981C64.4757 27.957 64.8978 28.9725 65.649 29.7212C66.4003 30.47 67.4192 30.8906 68.4817 30.8906H80.083V28.2544H74.7424C74.5359 28.2534 74.338 28.1714 74.1916 28.0263C74.0452 27.8811 73.9619 27.6843 73.9598 27.4785V27.3092C73.9604 27.1025 74.043 26.9044 74.1896 26.7583C74.3363 26.6121 74.535 26.5298 74.7424 26.5292H80.0729V22.8168H57.121C55.0304 22.8179 53.0257 23.6462 51.5476 25.1197C50.0695 26.5932 49.239 28.5914 49.2384 30.675Z" fill="#3A3768"/>
<path d="M49.6834 43.6726V39.6417C49.6835 39.5225 49.6371 39.408 49.5541 39.3223C49.4711 39.2366 49.358 39.1863 49.2385 39.1822V44.1301C49.3575 44.1254 49.47 44.0753 49.5529 43.9901C49.6357 43.9049 49.6825 43.7912 49.6834 43.6726Z" fill="#3A3768"/>
<path d="M49.7764 56.4061V48.7091C49.7764 48.6485 49.7645 48.5885 49.7412 48.5325C49.7179 48.4765 49.6838 48.4256 49.6408 48.3828C49.5978 48.3399 49.5467 48.3059 49.4906 48.2827C49.4344 48.2595 49.3742 48.2476 49.3133 48.2476H49.2385V56.8676H49.3093C49.3705 56.8682 49.4311 56.8566 49.4878 56.8337C49.5444 56.8107 49.5959 56.7768 49.6394 56.7339C49.6828 56.691 49.7173 56.6399 49.7408 56.5837C49.7643 56.5274 49.7764 56.4671 49.7764 56.4061Z" fill="#3A3768"/>
<path d="M54.3647 58.5566C54.3647 55.4145 57.1149 52.867 60.5082 52.867C63.9014 52.867 66.6496 55.4145 66.6496 58.5566C66.6415 59.396 66.4416 60.2226 66.0649 60.9734C65.6882 61.7243 65.1447 62.3797 64.4757 62.8898H80.0669V45.0128C80.2545 44.836 80.4875 44.7143 80.7401 44.6609C80.9927 44.6076 81.2552 44.6248 81.4986 44.7105C81.9094 44.8407 82.2545 45.1227 82.4632 45.4985C83.2377 46.8146 84.4571 47.6631 85.8281 47.6631C88.1699 47.6631 90.0748 45.1902 90.0748 42.1368C90.0748 39.0834 88.1779 36.6125 85.8281 36.6125C84.724 36.6125 83.719 37.1607 82.9647 38.0616C82.6787 38.4062 82.4362 38.7846 82.2428 39.1882L82.2044 39.428C82.2044 39.428 81.3004 40.1979 80.0669 39.4905V30.8846H68.4716C67.4109 30.8819 66.3946 30.4601 65.6455 29.7116C64.8964 28.9632 64.4757 27.9492 64.4757 26.892V26.0496H57.8854C57.2461 26.0498 56.6131 26.1756 56.0227 26.4198C55.4322 26.664 54.8958 27.0218 54.4442 27.4727C53.9925 27.9236 53.6344 28.4588 53.3904 29.0477C53.1464 29.6366 53.0212 30.2676 53.022 30.9047V62.8898H56.5285C55.8614 62.3787 55.3198 61.7228 54.9449 60.972C54.57 60.2212 54.3716 59.3952 54.3647 58.5566Z" fill="#0057FF"/>
<path d="M74.7426 26.5232C74.5352 26.5237 74.3364 26.6061 74.1898 26.7522C74.0431 26.8984 73.9605 27.0965 73.96 27.3032V27.4785C73.9605 27.6854 74.0431 27.8837 74.1896 28.0302C74.3362 28.1766 74.535 28.2594 74.7426 28.2605H80.0731V26.5292L74.7426 26.5232Z" fill="#E6E8EC"/>
<path d="M110.819 50.8737V62.8374H112.184V50.392H111.446C111.1 50.392 110.819 50.6077 110.819 50.8737Z" fill="#3A3768"/>
<path d="M83.3167 22.7301H81.699V26.3579H83.3167V22.7301Z" fill="#3A3768"/>
<path d="M83.3167 28.1718H81.699V30.7919H83.3167V28.1718Z" fill="#3A3768"/>
<path d="M83.3167 26.3579H81.699V28.1718H83.3167V26.3579Z" fill="#E6E8EC"/>
<path d="M112.463 50.8979H112.083V62.8233H112.926V51.3615C112.926 51.2389 112.877 51.1213 112.791 51.0344C112.704 50.9475 112.586 50.8984 112.463 50.8979Z" fill="#3A3768"/>
<path d="M83.3147 26.3579C83.7454 26.4547 84.1236 27.2367 84.1236 27.2367V27.4059C84.1236 27.4059 83.7434 28.1859 83.3147 28.1718V30.7919H92.453C93.5157 30.7914 94.5346 30.3703 95.2858 29.6212C96.037 28.8721 96.459 27.8564 96.459 26.7973V25.9548H103.334C104.623 25.9575 105.857 26.4694 106.767 27.3781C107.677 28.2868 108.188 29.5182 108.188 30.802V54.2838C108.821 54.7883 109.333 55.4285 109.684 56.1568C110.036 56.8851 110.218 57.6829 110.218 58.4911C110.218 59.2993 110.036 60.0971 109.684 60.8254C109.333 61.5537 108.821 62.1938 108.188 62.6983V62.8333H111.019V51.0047C111.019 50.9969 111.02 50.9891 111.024 50.9819C111.027 50.9747 111.031 50.9681 111.037 50.9627C111.042 50.9572 111.049 50.953 111.056 50.9501C111.064 50.9473 111.072 50.946 111.08 50.9463H112.03V30.288C112.03 29.2954 111.834 28.3125 111.453 27.3954C111.072 26.4783 110.514 25.6451 109.809 24.9432C109.105 24.2413 108.269 23.6846 107.349 23.3049C106.429 22.9252 105.443 22.7299 104.447 22.7301H83.1145V26.3579H83.3147ZM86.3763 26.3398C86.5711 26.3398 86.7615 26.3973 86.9234 26.5052C87.0854 26.613 87.2116 26.7663 87.2862 26.9457C87.3607 27.125 87.3802 27.3224 87.3422 27.5128C87.3042 27.7032 87.2104 27.8781 87.0727 28.0153C86.935 28.1526 86.7595 28.2461 86.5684 28.284C86.3774 28.3218 86.1794 28.3024 85.9994 28.2281C85.8195 28.1538 85.6657 28.028 85.5575 27.8666C85.4493 27.7052 85.3915 27.5154 85.3915 27.3213C85.3915 27.061 85.4953 26.8113 85.6799 26.6273C85.8646 26.4432 86.1151 26.3398 86.3763 26.3398Z" fill="#3A3768"/>
<path d="M86.1378 35.8184C89.3147 35.8184 91.891 38.5614 91.891 41.9433C91.891 45.3252 89.3147 48.0682 86.1378 48.0682C85.2743 48.0635 84.4235 47.86 83.6518 47.4737C82.8801 47.0874 82.2084 46.5287 81.689 45.8412V62.8374H100.091C99.4242 62.3247 98.8831 61.6677 98.5086 60.9159C98.1341 60.1642 97.936 59.3374 97.9293 58.4981C97.9293 55.352 100.673 52.8025 104.061 52.8025C105.57 52.7923 107.033 53.3174 108.19 54.2838V30.802C108.19 29.5182 107.679 28.2868 106.769 27.3781C105.859 26.4694 104.625 25.9575 103.337 25.9548H96.4611V26.7973C96.4611 27.8564 96.0392 28.8721 95.2879 29.6212C94.5367 30.3703 93.5178 30.7913 92.4552 30.7919H81.6991V38.0475C82.2175 37.3611 82.8875 36.803 83.6573 36.4164C84.4271 36.0299 85.2759 35.8252 86.1378 35.8184Z" fill="#0057FF"/>
<path d="M83.3148 28.1718C83.5225 28.1721 83.7223 28.0927 83.8729 27.9501C84.0235 27.8075 84.1133 27.6127 84.1237 27.4059V27.2366C84.1002 27.0235 84.0091 26.8233 83.8636 26.6652C83.7182 26.5072 83.5259 26.3995 83.3148 26.3579H83.1125V28.1718H83.3148Z" fill="#E6E8EC"/>
<path d="M86.5342 28.2858C87.0711 28.1989 87.4357 27.6948 87.3485 27.1597C87.2614 26.6246 86.7555 26.2612 86.2187 26.3481C85.6818 26.435 85.3172 26.9391 85.4044 27.4742C85.4915 28.0093 85.9974 28.3726 86.5342 28.2858Z" fill="#E6E8EC"/>
<path d="M106.817 103.966V101.951C107.236 101.376 107.462 100.683 107.462 99.9719C107.462 99.2608 107.236 98.568 106.817 97.9927V103.966Z" fill="#3A3768"/>
<path d="M110.6 104.744H106.817V105.611H110.6V104.744Z" fill="#3A3768"/>
<path d="M105.29 103.33C104.913 103.538 104.63 103.882 104.499 104.291C104.422 104.511 104.401 104.747 104.439 104.978C104.476 105.208 104.569 105.426 104.712 105.611H106.817V104.744H106.008C106.301 104.511 106.572 104.25 106.817 103.966V101.951C106.414 102.515 105.893 102.986 105.29 103.33Z" fill="#1A35B6"/>
<path d="M106.004 104.744H106.813V103.966C106.568 104.25 106.297 104.511 106.004 104.744Z" fill="#1A35B6"/>
<path d="M107.462 99.9759C107.457 99.2656 107.232 98.5743 106.817 97.9967V101.953C107.231 101.376 107.456 100.685 107.462 99.9759Z" fill="#3A3768"/>
<path d="M110.6 105.611V138.646C110.6 140.731 109.769 142.73 108.29 144.204C106.811 145.678 104.805 146.506 102.714 146.506H81.4805V143.282H101.951C103.242 143.282 104.479 142.771 105.392 141.861C106.304 140.952 106.817 139.719 106.817 138.432V105.611H110.6Z" fill="#3A3768"/>
<path d="M104.499 104.291C104.63 103.882 104.913 103.538 105.29 103.33C105.893 102.986 106.414 102.517 106.817 101.953V97.9967C105.884 96.6605 104.042 95.7495 101.919 95.7495C98.8552 95.7495 96.374 97.642 96.374 99.9819C96.374 101.082 96.926 102.084 97.8279 102.836C98.1744 103.12 98.5539 103.362 98.9584 103.555L98.9826 103.594C99.2475 103.85 99.4233 104.183 99.484 104.546C99.5448 104.909 99.4874 105.281 99.3203 105.609H81.4805V122.136C81.9928 121.452 82.6568 120.897 83.4206 120.512C84.1843 120.128 85.0271 119.924 85.8828 119.919C89.0354 119.919 91.5895 122.66 91.5895 126.04C91.5895 129.419 89.0354 132.162 85.8828 132.162C85.0271 132.157 84.1843 131.954 83.4206 131.569C82.6568 131.184 81.9928 130.629 81.4805 129.945V143.286H101.951C103.24 143.286 104.475 142.776 105.387 141.87C106.299 140.963 106.813 139.733 106.817 138.449V105.611H104.718C104.574 105.426 104.48 105.209 104.441 104.978C104.403 104.748 104.423 104.512 104.499 104.291Z" fill="#0057FF"/>
<path d="M142.974 54.2435C144.102 53.7377 144.937 52.8851 145.222 51.7928C145.257 51.6603 145.283 51.5256 145.299 51.3897C145.35 51.2639 145.393 51.1354 145.429 51.0047C145.714 49.9083 145.4 48.7736 144.656 47.8042L143.178 53.4474L142.974 54.2435Z" fill="url(#paint0_linear)"/>
<path d="M177.096 52.1253C176.866 50.777 172.595 47.8566 172.595 47.8566C172.595 47.8566 170.708 46.8489 169.709 45.684C169.07 44.9423 168.87 44.9503 168.809 45.0511C168.768 45.0248 168.721 45.0089 168.672 45.0048C168.631 44.9765 168.593 44.9503 168.556 44.9201C168.562 44.8632 168.55 44.8059 168.521 44.7563C168.493 44.7067 168.449 44.6674 168.397 44.644C168.348 44.6158 168.3 44.5795 168.251 44.5452C167.927 44.0031 167.812 43.2352 167.774 42.5661C167.725 41.7216 166.763 41.9332 166.433 42.028C166.207 41.6047 165.986 41.1654 165.778 40.726C165.87 40.5833 165.947 40.4313 166.006 40.2725C166.601 38.9846 166.472 37.5073 166.73 36.1449C166.916 35.1593 167.305 34.1295 167.228 33.1701C167.228 33.1479 167.228 33.1237 167.228 33.0996C167.228 33.0996 167.228 33.1096 167.228 33.1137C167.207 32.8733 167.152 32.6372 167.064 32.4123C166.892 31.981 166.593 31.6061 166.457 31.1607C166.241 30.5097 166.378 29.7922 166.199 29.1332C165.974 28.2988 165.266 27.6538 164.465 27.285C163.665 26.9162 162.773 26.7892 161.895 26.6804C159.701 26.4063 157.37 26.243 155.368 27.1621C155.184 27.2705 154.974 27.3269 154.761 27.3253C154.563 27.271 154.376 27.1845 154.207 27.0694C153.669 26.8033 152.994 26.9726 152.512 27.3273C152.031 27.6821 151.703 28.194 151.386 28.6898C151.068 29.1856 150.721 29.6975 150.223 30.022C149.639 30.411 148.866 30.542 148.403 31.066C148.197 31.3144 148.066 31.6166 148.027 31.9367C148.027 31.9367 148.027 31.9266 148.027 31.9225C148.025 31.9608 148.025 31.9992 148.027 32.0374C148.027 32.0677 148.027 32.0999 148.027 32.1301C148.027 32.1604 148.027 32.1805 148.027 32.2047C148.027 32.2914 148.027 32.376 148.027 32.4607C148.092 32.953 148.223 33.4344 148.417 33.8916C148.511 34.2328 148.694 34.5431 148.947 34.7905C149.651 35.3609 150.767 34.8228 151.616 35.1412C151.691 35.1674 151.762 35.2017 151.833 35.2339C151.833 35.2662 151.811 35.2984 151.8 35.3327C151.619 35.9485 151.527 36.5872 151.527 37.2292C151.527 41.0142 154.68 44.0817 158.569 44.0817C158.714 44.0817 158.858 44.0817 159.001 44.0656C159.022 44.1401 159.044 44.2167 159.062 44.2893C159.279 45.1256 159.347 45.9932 159.264 46.8529L159.222 46.4781C159.127 46.433 159.029 46.3959 158.929 46.3672C158.647 46.2738 158.352 46.2288 158.055 46.2342C157.099 46.2221 155.659 46.605 154.122 48.4633C154.122 48.4633 152.16 49.5496 151.584 49.8116C151.537 49.8401 151.499 49.8823 151.477 49.9325C151.477 49.9325 148.854 53.8808 148.583 55.3823C148.312 56.8838 147.976 58.607 147.976 58.607C147.976 58.607 147.321 60.5539 146.899 61.4165C146.476 62.2791 146.09 63.1014 146.053 63.4763C146.017 63.8511 146.207 64.6734 145.398 65.1975C144.589 65.7215 144.387 67.1444 144.387 67.1444C144.387 67.1444 143.983 67.5233 143.41 68.003H143.39L145.503 59.9271L145.881 60.0218C145.972 60.0442 146.067 60.0401 146.155 60.0101C146.243 59.9801 146.321 59.9254 146.379 59.8525C146.418 59.8032 146.446 59.7462 146.462 59.6852L146.889 58.0487L147.06 57.3977L147.095 57.2647L147.344 56.3154L146.502 56.1139L145.517 55.87L142.735 55.1706L142.978 54.2435L143.18 53.4575L144.452 48.5923L144.654 47.8082C143.845 46.7642 142.557 45.9157 140.974 45.5227C137.92 44.7669 134.964 45.9964 134.369 48.2678C134.334 48.4002 134.308 48.5349 134.29 48.6709C134.239 48.7954 134.196 48.9234 134.163 49.0538C134.06 49.4482 134.032 49.8585 134.082 50.263C134.09 50.3289 134.1 50.3961 134.112 50.4646C134.233 51.0921 134.499 51.6832 134.887 52.1918C135.16 52.5552 135.477 52.8835 135.831 53.1693L135.845 53.2137C135.995 53.4581 136.086 53.7342 136.11 54.0198C136.11 54.0601 136.11 54.1025 136.11 54.1448C136.042 54.2664 135.961 54.3799 135.868 54.4834L117.211 49.862L117.008 50.646L112.806 66.7393C113.354 66.3196 113.97 65.9959 114.626 65.7819C114.884 65.6968 115.148 65.6295 115.415 65.5804L115.51 65.5643C116.262 65.4425 117.031 65.4741 117.771 65.657C120.129 66.2415 121.759 68.2428 122.062 70.5968C122.101 70.8941 122.118 71.1939 122.113 71.4937C122.107 71.8761 122.066 72.2573 121.991 72.6324C120.98 75.6919 117.874 77.54 114.857 76.7923C114.011 76.5797 113.226 76.1753 112.564 75.6107C111.901 75.0462 111.377 74.3366 111.035 73.5373L110.833 74.3234L106.497 90.8399L123.02 94.9353L123.198 94.1432H123.225C122.735 93.5391 122.381 92.8382 122.184 92.0869C121.987 91.3356 121.953 90.5512 122.084 89.7858C122.084 89.7596 122.1 89.7354 122.11 89.7092C122.131 89.6508 122.153 89.5944 122.175 89.5379C122.288 89.2622 122.424 88.996 122.58 88.7418C122.661 88.6108 122.745 88.4838 122.836 88.3609C122.893 88.2843 122.952 88.2098 123.012 88.1372C123.303 87.7861 123.635 87.4708 124.001 87.198L124.119 87.1134C124.252 87.0186 124.39 86.9279 124.523 86.8433C124.606 86.7949 124.691 86.7465 124.776 86.7022C125.754 86.187 126.848 85.9269 127.955 85.9464C128.486 85.9535 129.016 86.0211 129.532 86.148C131.126 86.5297 132.518 87.4943 133.433 88.8507C133.554 89.0325 133.664 89.2209 133.764 89.415C134.062 89.9908 134.256 90.6143 134.337 91.2571C134.4 91.7702 134.386 92.2898 134.296 92.7989C133.903 93.9261 133.152 94.8947 132.157 95.558L131.955 96.3158H131.977L131.946 96.338L131.744 97.0938L135.518 98.029L140.862 77.663C142.304 77.4957 143.042 76.8568 143.042 76.7641C143.042 76.6714 144.775 75.714 145.736 75.452C146.213 75.323 146.765 75.2303 147.204 75.1376C146.686 77.6992 146.193 80.1762 146.237 80.3213C146.252 80.3778 146.345 80.2891 146.486 80.0956C146.472 80.17 146.466 80.2457 146.468 80.3213C146.468 80.3596 146.522 80.3314 146.593 80.2528L146.583 80.3012C146.583 80.3012 143.582 86.0875 143.348 86.7506C143.113 87.4137 143.404 89.1107 144.328 89.673C144.508 89.7859 144.667 89.9267 144.802 90.0902L144.692 90.3058C144.349 91.0011 144.043 91.7751 144.098 92.2568C144.17 92.8664 144.027 93.4821 143.693 93.9981C143.693 93.9981 141.095 102.001 141.154 104.305C141.212 106.609 140.229 111.663 140.229 111.663C140.229 111.663 139.162 114.92 139.797 115.847C140.432 116.775 141.154 120.82 141.154 120.82C141.154 120.82 141.645 121.747 141.615 122.533C141.584 123.319 142.078 124.75 142.078 124.75L143.695 130.562C143.695 130.562 143.522 132.108 144.128 133.202C144.735 134.297 144.676 133.96 144.387 135.871C144.098 137.782 144.735 139.549 145.772 140.103C146.177 140.321 146.197 140.654 146.072 140.978C145.807 140.875 145.586 141.421 145.455 141.863L145.321 141.99L145.41 142.012C145.354 142.213 145.321 142.383 145.321 142.383C145.321 142.383 142.61 144.63 142.436 145.444C142.262 146.258 140.357 146.68 140.357 146.68C140.357 146.68 137.471 147.466 136.717 147.859C136.501 147.957 136.314 148.108 136.175 148.299C136.035 148.49 135.947 148.714 135.92 148.949C135.886 149.319 135.922 149.692 136.025 150.049C136.312 151.2 140.353 151.313 142.294 151.005C144.235 150.696 148.237 149.572 148.237 149.572C148.237 149.572 152.452 149.169 153.697 148.673C154.943 148.177 153.956 146.875 153.956 146.875C153.956 146.875 153.956 146.833 153.956 146.754C153.986 146.285 154.073 144.582 153.774 144.134C153.55 143.788 153.556 142.925 153.588 142.377C154.431 140.865 152.621 136.33 152.621 136.33C152.621 136.33 152.967 131.896 152.737 131.247C152.506 130.598 151.523 125.096 151.523 125.096C151.523 125.096 150.917 122.597 151.149 122.176C151.382 121.755 151.004 120.545 151.004 120.545C151.004 120.545 150.015 119.201 150.104 118.778C150.193 118.355 149.815 117.599 149.815 117.599C149.815 117.599 152.759 113.217 152.498 112.403C152.237 111.589 152.615 110.269 152.615 110.269C152.615 110.269 152.985 109.648 153.424 108.904C153.97 107.993 154.638 106.903 154.856 106.562C155.139 106.129 155.821 104.285 156.201 103.223C156.363 102.771 156.472 102.461 156.472 102.461C156.472 102.461 156.933 110.724 157.337 111.561C157.742 112.397 158.348 119.06 158.348 119.06C158.573 119.651 158.671 120.283 158.638 120.914C158.581 121.952 159.562 126.475 159.562 126.475C159.562 126.475 159.994 129.675 159.705 130.518C159.416 131.36 159.649 137.572 159.649 137.572C159.649 137.572 158.061 138.781 157.657 139.706C157.252 140.631 157.713 143.161 157.713 143.161L157.899 143.247C157.751 143.599 157.64 143.965 157.57 144.34C157.513 144.874 156.646 147.29 156.733 147.627C156.82 147.964 156.358 149.003 156.3 149.536C156.241 150.068 155.521 150.856 155.463 151.138C155.371 151.39 155.265 151.637 155.145 151.878C154.988 152.246 154.863 152.628 154.771 153.018C154.482 154.199 157.916 154.395 157.916 154.395C162.995 155.322 163.919 151.531 163.919 151.531C163.919 151.531 164.554 148.161 164.785 147.903C164.813 147.855 164.831 147.802 164.838 147.747C164.844 147.692 164.84 147.636 164.823 147.583C164.692 147.009 164.442 146.469 164.091 145.996C163.93 145.809 163.919 145.327 163.946 144.896C164.093 144.882 164.238 144.855 164.381 144.815C166.429 144.227 165.594 140.827 165.594 140.827C165.594 140.827 166.979 138.582 166.979 137.711C166.979 136.84 167.47 134.172 167.47 134.172C169.232 131.026 168.538 123.387 168.827 122.768C169.117 122.15 168.221 119.848 167.499 118.808C166.777 117.768 167.066 114.961 167.499 114.146C167.932 113.332 167.066 110.519 167.066 110.519C167.066 110.519 167.903 105.077 167.875 104.226C167.847 103.376 168.597 100.885 168.597 100.885C168.597 100.885 169.347 99.593 169.173 99.1999C168.999 98.8069 169.749 97.7891 169.549 97.3457C169.349 96.9023 169.721 95.5197 170.097 94.7055C170.289 94.2883 170.528 93.1395 170.704 92.1177C170.724 92.0048 170.744 91.892 170.763 91.7811C171.604 92.3112 172.38 92.7062 172.655 92.5994C173.171 92.3978 172.35 89.7778 171.788 88.1453C171.885 88.0727 171.925 88.0183 171.885 87.9941C171.539 87.7684 171.923 86.7566 171.923 86.7566C173.964 85.5594 173.27 84.6606 172.617 84.1365C171.964 83.6125 172.386 82.1211 172.192 81.5165C171.998 80.9118 172.425 78.185 172.771 76.1997C172.842 75.7684 172.839 75.328 172.761 74.8978C173.131 74.3355 173.513 73.747 173.848 73.2028C175.001 71.3304 177.464 62.4182 177.464 62.4182L177.448 62.3718C177.689 61.8982 177.869 61.5132 177.966 61.2573C178.712 59.3225 177.327 53.4777 177.096 52.1253ZM159.163 46.994L159.216 46.9698C159.216 46.9839 159.216 46.998 159.216 47.0121L159.163 46.994ZM147.966 142.596C147.841 142.597 147.716 142.573 147.6 142.524L147.966 142.596Z" fill="url(#paint1_linear)"/>
<path d="M126.588 77.6408C128.252 78.2696 132.121 78.3381 133.84 78.3381C134.361 78.3381 134.685 78.3381 134.685 78.3381L135.787 76.101L134.685 74.2367C134.685 74.2367 133.674 73.9586 132.331 73.7167C130.349 73.362 127.637 73.0839 126.345 73.882C124.177 75.2182 124.42 76.8205 126.588 77.6408Z" fill="#FEC2BE"/>
<path opacity="0.1" d="M133.837 78.3381C134.359 78.3381 134.683 78.3381 134.683 78.3381L135.785 76.101L134.685 74.2367C134.685 74.2367 133.674 73.9586 132.331 73.7167C133.421 74.5148 136.042 76.2521 133.837 78.3381Z" fill="black"/>
<path d="M152.092 50.8818L151.606 50.3215C151.606 50.3215 149.101 54.2718 148.838 55.7632C148.575 57.2546 148.231 58.9677 148.231 58.9677C148.231 58.9677 147.596 60.9066 147.184 61.7631C146.771 62.6197 146.399 63.44 146.363 63.8128C146.326 64.1857 146.512 65.006 145.726 65.528C144.939 66.05 144.755 67.4668 144.755 67.4668C144.755 67.4668 141.912 70.224 140.416 70.2884C138.919 70.3529 134.62 71.1087 134.77 71.8544C134.919 72.6002 132.976 73.0456 132.189 73.233C131.403 73.4204 137.245 75.6515 133.835 78.5255C133.835 78.5255 136.003 78.973 136.228 79.493C136.452 80.0129 138.733 79.1967 138.733 79.1967C138.733 79.1967 139.22 78.0398 140.903 77.9653C142.585 77.8907 143.445 77.145 143.445 77.0341C143.445 76.9233 145.127 75.9901 146.074 75.7301C147.02 75.4701 148.241 75.3573 148.28 75.0953C148.318 74.8333 153.889 50.8717 153.889 50.8717L152.092 50.8818Z" fill="#4C4981"/>
<path opacity="0.05" d="M152.092 50.8818L151.606 50.3215C151.606 50.3215 149.101 54.2718 148.838 55.7632C148.575 57.2546 148.231 58.9677 148.231 58.9677C148.231 58.9677 147.596 60.9066 147.184 61.7631C146.771 62.6197 146.399 63.44 146.363 63.8128C146.326 64.1857 146.512 65.006 145.726 65.528C144.939 66.05 144.755 67.4668 144.755 67.4668C144.755 67.4668 141.912 70.224 140.416 70.2884C138.919 70.3529 134.62 71.1087 134.77 71.8544C134.919 72.6002 132.976 73.0456 132.189 73.233C131.403 73.4204 137.245 75.6515 133.835 78.5255C133.835 78.5255 136.003 78.973 136.228 79.493C136.452 80.0129 138.733 79.1967 138.733 79.1967C138.733 79.1967 139.22 78.0398 140.903 77.9653C142.585 77.8907 143.445 77.145 143.445 77.0341C143.445 76.9233 145.127 75.9901 146.074 75.7301C147.02 75.4701 148.241 75.3573 148.28 75.0953C148.318 74.8333 153.889 50.8717 153.889 50.8717L152.092 50.8818Z" fill="black"/>
<path d="M157.916 154.304C162.852 155.227 163.75 151.452 163.75 151.452C163.75 151.452 164.367 148.099 164.591 147.847C164.619 147.799 164.637 147.746 164.643 147.691C164.65 147.637 164.645 147.581 164.63 147.528C164.5 146.96 164.258 146.422 163.918 145.948C163.61 145.585 163.861 144.076 163.861 144.076L158.14 142.623C158.14 142.623 157.635 143.767 157.58 144.299C157.526 144.832 156.682 147.234 156.771 147.57C156.86 147.907 156.407 148.939 156.351 149.471C156.294 150.003 155.594 150.785 155.542 151.063C155.454 151.315 155.35 151.561 155.232 151.801C155.081 152.169 154.959 152.548 154.868 152.936C154.579 154.109 157.916 154.304 157.916 154.304Z" fill="#CA8496"/>
<path opacity="0.1" d="M157.916 154.304C162.852 155.227 163.75 151.452 163.75 151.452C163.75 151.452 164.367 148.099 164.591 147.847C164.619 147.799 164.637 147.746 164.644 147.691C164.65 147.637 164.645 147.581 164.63 147.528L163.441 150.922C163.441 150.922 162.46 152.962 158.814 152.655C156.739 152.48 155.718 152.097 155.222 151.799C155.071 152.167 154.949 152.546 154.858 152.934C154.579 154.109 157.916 154.304 157.916 154.304Z" fill="black"/>
<path opacity="0.1" d="M161.758 148.993C161.758 148.993 160.524 149.022 160.439 148.016L161.758 148.993Z" fill="black"/>
<path d="M123.385 94.1351L124.167 94.3346L123.995 95.1267L123.269 94.9433L123.385 94.1351Z" fill="#1A35B6"/>
<path opacity="0.1" d="M123.385 94.1351L124.167 94.3346L123.995 95.1267L123.269 94.9433L123.385 94.1351Z" fill="black"/>
<path d="M146.611 57.2566L146.369 58.202L147.187 58.4093L147.428 57.4639L146.611 57.2566Z" fill="#3A3768"/>
<path d="M142.942 56.3249L142.701 57.2702L145.411 57.9578L145.652 57.0124L142.942 56.3249Z" fill="#3A3768"/>
<path d="M145.651 57.0146L145.409 57.96L146.368 58.2031L146.609 57.2577L145.651 57.0146Z" fill="#3A3768"/>
<path d="M142.984 56.2025C142.919 56.2328 142.857 56.265 142.794 56.2912L142.952 56.3315L142.709 57.2768L141.51 56.9724C141.419 56.7581 141.382 56.5246 141.404 56.2929C141.425 56.0612 141.504 55.8383 141.633 55.6443C141.861 55.2771 142.224 55.0126 142.644 54.9066C142.901 54.833 143.152 54.7401 143.394 54.6285L142.984 56.2025Z" fill="#1A35B6"/>
<path d="M145.845 60.2838L146.211 60.3785C146.27 60.3937 146.332 60.397 146.392 60.3883C146.453 60.3797 146.511 60.3592 146.563 60.3281C146.616 60.297 146.661 60.2559 146.698 60.2072C146.734 60.1584 146.761 60.1029 146.775 60.044L147.184 58.4155L146.375 58.214L145.845 60.2838Z" fill="#3A3768"/>
<path d="M145.566 52.1898C145.287 53.2781 144.476 54.1266 143.38 54.6285L144.816 49.0054C145.544 49.9708 145.849 51.1015 145.566 52.1898Z" fill="#3A3768"/>
<path d="M145.335 60.1548C145.217 60.1244 145.115 60.0484 145.053 59.9434C144.99 59.8384 144.972 59.7129 145.002 59.5945L145.418 57.964L142.709 57.2768L134.444 89.6326C135.045 90.7985 135.198 92.1431 134.873 93.4133C134.549 94.6836 133.77 95.7918 132.683 96.5295L132.49 97.2832L136.157 98.2204L145.845 60.2919L145.335 60.1548Z" fill="#3A3768"/>
<path d="M145.002 59.5945C144.972 59.7129 144.99 59.8384 145.053 59.9434C145.115 60.0484 145.217 60.1244 145.336 60.1548L145.845 60.2838L146.375 58.2079L145.419 57.964L145.002 59.5945Z" fill="#3A3768"/>
<path d="M141.631 55.6443C141.861 55.2782 142.223 55.0141 142.642 54.9066C142.898 54.8325 143.148 54.7395 143.39 54.6285L144.828 49.0054C143.928 47.866 142.667 47.0645 141.251 46.732C138.284 45.9782 135.409 47.2016 134.832 49.4629C134.559 50.5291 134.847 51.6356 135.536 52.5868C135.8 52.9476 136.108 53.2745 136.452 53.5603L136.466 53.6046C136.661 53.9188 136.749 54.2871 136.718 54.6551C136.687 55.0231 136.538 55.3713 136.292 55.6483L118.161 51.047L114.07 67.0658C114.734 66.5302 115.512 66.1545 116.345 65.9678C117.178 65.7811 118.043 65.7886 118.873 65.9895C121.929 66.7655 123.726 70.0506 122.889 73.3257C122.052 76.6008 118.906 78.6304 115.85 77.8645C115.022 77.647 114.256 77.2415 113.611 76.6796C112.967 76.1177 112.462 75.4147 112.135 74.6257L107.935 91.0636L123.995 95.1368C123.474 94.4777 123.111 93.709 122.933 92.889C122.755 92.0689 122.767 91.2193 122.968 90.4045C123.747 87.3612 127.041 85.5675 130.329 86.4019C131.207 86.6161 132.028 87.0153 132.738 87.5726C133.448 88.1299 134.03 88.8323 134.444 89.6326L142.709 57.2768L141.522 56.9724C141.429 56.7592 141.39 56.5264 141.409 56.2947C141.428 56.063 141.504 55.8395 141.631 55.6443Z" fill="#1A35B6"/>
<path d="M142.949 56.3315L142.984 56.2025C142.921 56.2328 142.858 56.265 142.794 56.2932L142.949 56.3315Z" fill="#1A35B6"/>
<g opacity="0.1">
<path opacity="0.1" d="M146.616 57.2627L145.659 57.0188L142.951 56.3315L142.986 56.2025L143.39 54.6285C143.148 54.7401 142.897 54.833 142.64 54.9066C142.22 55.0126 141.857 55.2771 141.629 55.6443C141.57 55.7457 141.519 55.8523 141.479 55.9627C141.519 55.8523 141.568 55.7457 141.627 55.6443C141.857 55.2782 142.219 55.0141 142.638 54.9066C142.894 54.8325 143.144 54.7395 143.386 54.6285L144.824 49.0054C143.924 47.866 142.663 47.0645 141.247 46.732C138.28 45.9782 135.405 47.2016 134.828 49.4629C134.555 50.5291 134.842 51.6356 135.532 52.5868C135.796 52.9476 136.104 53.2745 136.448 53.5603L136.462 53.6046C136.657 53.9188 136.745 54.2871 136.714 54.6551C136.683 55.0231 136.533 55.3713 136.288 55.6483L118.157 51.047L114.066 67.0658C114.73 66.5296 115.51 66.1535 116.343 65.9668C117.177 65.7801 118.043 65.7879 118.873 65.9895C121.929 66.7655 123.726 70.0506 122.889 73.3257C122.052 76.6008 118.906 78.6303 115.85 77.8645C115.022 77.647 114.256 77.2414 113.611 76.6795C112.967 76.1176 112.462 75.4147 112.135 74.6257L107.935 91.0636L123.995 95.1368C123.474 94.4777 123.111 93.709 122.933 92.889C122.755 92.0689 122.767 91.2193 122.968 90.4045C123.747 87.3612 127.041 85.5675 130.329 86.4019C131.207 86.6161 132.028 87.0153 132.738 87.5726C133.448 88.1299 134.03 88.8323 134.444 89.6326C135.045 90.7985 135.198 92.1431 134.873 93.4133C134.549 94.6836 133.77 95.7918 132.683 96.5295L132.491 97.2832L136.157 98.2204L145.845 60.2919L146.211 60.3866C146.27 60.4017 146.332 60.405 146.392 60.3964C146.453 60.3877 146.511 60.3673 146.563 60.3362C146.616 60.3051 146.661 60.264 146.698 60.2152C146.734 60.1665 146.761 60.111 146.775 60.052L147.184 58.4155L147.425 57.4703L146.616 57.2627ZM142.887 56.2549C142.856 56.269 142.826 56.2852 142.796 56.2973L142.887 56.2549ZM141.512 56.9785L142.711 57.2828L141.512 56.9785Z" fill="black"/>
<path opacity="0.1" d="M145.566 52.1898C145.843 51.1015 145.538 49.9728 144.816 49.0054L143.38 54.6285C144.482 54.1266 145.293 53.2761 145.566 52.1898Z" fill="black"/>
</g>
<path d="M146.809 56.4773L146.568 57.4227L147.385 57.63L147.626 56.6846L146.809 56.4773Z" fill="#3A3768"/>
<path d="M143.141 55.5456L142.899 56.4909L145.609 57.1784L145.851 56.2331L143.141 55.5456Z" fill="#3A3768"/>
<path d="M145.85 56.2314L145.608 57.1767L146.567 57.4198L146.808 56.4745L145.85 56.2314Z" fill="#3A3768"/>
<path d="M143.184 55.4206L142.994 55.5112L143.149 55.5495L142.909 56.5008L141.71 56.1965C141.617 55.9825 141.58 55.749 141.601 55.5171C141.622 55.2851 141.701 55.0621 141.831 54.8683C142.06 54.5019 142.422 54.2376 142.842 54.1307C143.098 54.0571 143.348 53.9641 143.59 53.8525L143.184 55.4206Z" fill="#1A35B6"/>
<path d="M146.043 59.5038L146.411 59.5966C146.471 59.6126 146.533 59.6166 146.594 59.6084C146.655 59.6002 146.714 59.5799 146.767 59.5487C146.82 59.5176 146.866 59.4762 146.903 59.4269C146.94 59.3777 146.967 59.3216 146.982 59.262L147.398 57.6335L146.589 57.432L146.043 59.5038Z" fill="#3A3768"/>
<path d="M145.768 51.4098C145.491 52.4961 144.68 53.3446 143.582 53.8465L145.02 48.2234C145.744 49.1888 146.049 50.3195 145.768 51.4098Z" fill="#3A3768"/>
<path d="M145.536 59.3748C145.477 59.3598 145.421 59.3333 145.373 59.2969C145.324 59.2605 145.283 59.2149 145.252 59.1627C145.221 59.1104 145.201 59.0526 145.192 58.9925C145.184 58.9325 145.187 58.8713 145.202 58.8125L145.607 57.1841L142.909 56.5008L134.646 88.8526C135.248 90.018 135.402 91.3627 135.077 92.6329C134.753 93.9031 133.973 95.011 132.885 95.7475L132.693 96.5012L136.361 97.4324L146.047 59.5038L145.536 59.3748Z" fill="#3A3768"/>
<path d="M145.202 58.8125C145.187 58.8713 145.184 58.9325 145.192 58.9925C145.201 59.0526 145.221 59.1104 145.252 59.1627C145.283 59.2149 145.324 59.2605 145.373 59.2969C145.421 59.3333 145.477 59.3598 145.536 59.3748L146.043 59.5038L146.577 57.4259L145.619 57.1841L145.202 58.8125Z" fill="#3A3768"/>
<path d="M141.831 54.8623C142.06 54.4958 142.422 54.2316 142.842 54.1246C143.098 54.0511 143.348 53.9581 143.59 53.8465L145.026 48.2234C144.127 47.0843 142.866 46.2828 141.451 45.95C138.482 45.1983 135.609 46.4196 135.03 48.6829C134.759 49.7471 135.044 50.8536 135.736 51.8049C136 52.1662 136.308 52.4938 136.652 52.7803L136.666 52.8227C136.86 53.137 136.948 53.5052 136.917 53.873C136.886 54.2409 136.737 54.589 136.492 54.8663L118.359 50.2671L114.262 66.2838C114.927 65.7468 115.707 65.3703 116.542 65.184C117.377 64.9976 118.244 65.0064 119.075 65.2095C122.129 65.9835 123.928 69.2686 123.091 72.5457C122.254 75.8229 119.105 77.8484 116.042 77.0744C115.215 76.8555 114.45 76.4491 113.807 75.8869C113.163 75.3248 112.659 74.6221 112.333 73.8336L108.135 90.2715L124.193 94.3468C123.673 93.6875 123.31 92.9187 123.132 92.0987C122.955 91.2787 122.967 90.4291 123.168 89.6145C123.945 86.5692 127.241 84.7775 130.529 85.6118C131.408 85.826 132.231 86.2263 132.941 86.7855C133.652 87.3447 134.233 88.0497 134.646 88.8527L142.909 56.5008L141.71 56.1965C141.617 55.9815 141.58 55.747 141.601 55.5141C141.622 55.2812 141.701 55.0572 141.831 54.8623Z" fill="#0057FF"/>
<path d="M143.15 55.5516L143.182 55.4206C143.119 55.4508 143.057 55.483 142.994 55.5112L143.15 55.5516Z" fill="#1A35B6"/>
<path d="M140.308 115.956C140.915 116.877 141.627 120.904 141.627 120.904C141.627 120.904 142.104 121.825 142.076 122.609C142.048 123.393 142.525 124.826 142.525 124.826L144.096 130.613C144.096 130.613 143.926 132.15 144.517 133.233C145.107 134.315 145.049 133.986 144.769 135.887C144.49 137.788 145.105 139.549 146.114 140.119C147.123 140.69 145.665 141.992 145.665 141.992C145.665 141.992 152.116 143.725 153.463 142.663C154.81 141.601 152.761 136.344 152.761 136.344C152.761 136.344 153.099 131.929 152.874 131.286C152.65 130.643 151.695 125.165 151.695 125.165C151.695 125.165 151.107 122.676 151.331 122.257C151.556 121.837 151.192 120.644 151.192 120.644C151.192 120.644 150.237 119.302 150.322 118.883C150.407 118.464 150.041 117.71 150.041 117.71C150.041 117.71 152.897 113.336 152.644 112.516C152.391 111.696 152.755 110.392 152.755 110.392L153.552 109.033C154.084 108.126 154.727 107.04 154.943 106.701C155.218 106.27 155.881 104.436 156.252 103.378L156.514 102.62C156.514 102.62 156.963 110.839 157.356 111.678C157.748 112.516 158.336 119.135 158.336 119.135C158.555 119.724 158.65 120.351 158.617 120.979C158.561 122.013 159.515 126.513 159.515 126.513C159.515 126.513 159.936 129.7 159.655 130.544C159.374 131.389 159.598 137.562 159.598 137.562C159.598 137.562 158.055 138.771 157.663 139.686C157.271 140.601 157.72 143.112 157.72 143.112C157.72 143.112 162.207 145.349 164.191 144.763C166.174 144.176 165.368 140.793 165.368 140.793C165.368 140.793 166.714 138.557 166.714 137.691C166.714 136.824 167.204 134.178 167.204 134.178C168.915 131.048 168.241 123.446 168.522 122.831C168.803 122.216 167.932 119.923 167.232 118.889C166.532 117.855 166.811 115.059 167.232 114.253C167.653 113.447 166.799 110.644 166.799 110.644C166.799 110.644 167.608 105.22 167.584 104.382C167.56 103.543 168.286 101.056 168.286 101.056C168.286 101.056 169.014 99.7703 168.846 99.3773C168.678 98.9843 169.406 97.9806 169.21 97.5332C169.014 97.0857 169.38 95.7193 169.744 94.9131C169.93 94.4979 170.162 93.3531 170.35 92.3394C170.522 91.374 170.65 90.5255 170.65 90.5255L166.021 86.807L154.466 83.7838L150.12 82.3871L145.884 89.0381C145.584 89.5231 145.31 90.0229 145.061 90.5356C144.727 91.2269 144.43 91.9968 144.482 92.4764C144.553 93.0818 144.415 93.6931 144.09 94.2097C144.09 94.2097 141.564 102.175 141.621 104.468C141.678 106.762 140.723 111.79 140.723 111.79C140.723 111.79 139.686 115.031 140.308 115.956Z" fill="#CEDDF9"/>
<path d="M157.388 51.1599C157.566 51.0874 169.766 46.0649 168.085 45.0672C167.088 44.4747 165.861 41.9635 165.02 39.9984C164.433 38.6259 164.035 37.5194 164.035 37.5194C164.035 37.5194 154.243 35.7861 157.748 41.768C158.3 42.6856 158.716 43.6781 158.983 44.7145C159.982 48.7898 157.469 51.0853 157.388 51.1599Z" fill="#FEC2BE"/>
<path opacity="0.1" d="M157.748 41.768C158.3 42.6856 158.716 43.6781 158.983 44.7145C160.226 44.6284 161.421 44.2057 162.44 43.4921C163.458 42.7785 164.262 41.8012 164.765 40.6655C164.862 40.448 164.947 40.2253 165.02 39.9984C164.433 38.6259 164.035 37.5194 164.035 37.5194C164.035 37.5194 154.243 35.7861 157.748 41.768Z" fill="black"/>
<path d="M151.661 37.6867C151.662 39.4123 152.319 41.0734 153.5 42.3352C154.681 43.597 156.298 44.3655 158.025 44.4859C159.752 44.6062 161.461 44.0694 162.807 42.9837C164.152 41.8979 165.035 40.3441 165.276 38.6354C165.518 36.9267 165.1 35.1903 164.108 33.7763C163.116 32.3623 161.622 31.3759 159.929 31.016C158.236 30.6561 156.469 30.9494 154.984 31.8369C153.499 32.7244 152.407 34.14 151.928 35.7982C151.751 36.4122 151.661 37.0479 151.661 37.6867Z" fill="#FEC2BE"/>
<path opacity="0.1" d="M145.061 90.5335C145.776 91.1825 146.051 92.418 146.051 92.418C146.051 92.418 149.418 94.7095 149.194 93.2564C148.969 91.8033 150.933 85.9323 150.933 85.9323L150.709 93.9275C150.709 93.9275 161.477 93.4237 162.263 92.6417C163.05 91.8597 167.649 90.3602 167.649 90.3602C167.649 90.3602 169.064 91.4868 170.35 92.3414C170.522 91.376 170.649 90.5275 170.649 90.5275L166.021 86.809L154.466 83.7859L150.12 82.3892L145.884 89.0401C145.584 89.5238 145.31 90.0223 145.061 90.5335Z" fill="black"/>
<path d="M144.707 89.9027C145.605 90.461 145.94 91.9706 145.94 91.9706C145.94 91.9706 149.305 94.2621 149.081 92.809C148.856 91.3559 150.82 85.4849 150.82 85.4849L150.595 93.4801C150.595 93.4801 161.366 92.9803 162.148 92.1943C162.931 91.4083 167.533 89.9027 167.533 89.9027C167.533 89.9027 171.517 93.0891 172.245 92.809C172.973 92.5288 170.955 87.1073 170.955 87.1073L168.882 55.354C168.882 55.354 169.442 45.9057 168.601 45.5691C168.471 45.5168 168.352 45.4424 168.247 45.3494C167.693 44.8536 167.527 43.8459 167.479 42.9994C167.424 41.9917 166.077 42.4955 166.077 42.4955L166.862 43.5033L159.912 47.7155L159.851 47.7518C159.58 47.6097 159.301 47.4839 159.016 47.3749C158.409 47.1391 157.582 46.9174 157.046 47.1371C156.747 47.2889 156.493 47.517 156.31 47.7982C155.914 48.3919 155.596 49.0341 155.364 49.7088L152.846 53.9553C152.846 53.9553 151.556 59.5986 151.556 59.8263C151.556 60.0541 151.164 65.1934 150.715 65.7517C150.266 66.31 149.817 69.1054 149.985 69.9438C150.152 70.7822 149.704 73.9142 149.704 73.9142C147.853 75.4238 146.901 80.5652 146.901 80.5652C146.901 80.5652 143.977 86.3293 143.746 86.9944C143.516 87.6595 143.809 89.3525 144.707 89.9027Z" fill="white"/>
<path opacity="0.1" d="M159.912 47.9372C160.593 48.9449 162.563 50.3558 162.563 50.3558L168.247 45.5691C167.693 45.0733 167.527 44.0656 167.479 43.2171C167.424 42.2093 166.077 42.7152 166.077 42.7152L166.241 42.9168C166.319 43.0172 166.375 43.133 166.405 43.2565C166.435 43.38 166.439 43.5084 166.416 43.6334C166.393 43.7584 166.344 43.8771 166.271 43.9818C166.199 44.0865 166.105 44.1748 165.996 44.2409L159.912 47.9372Z" fill="black"/>
<path d="M159.912 47.7135C160.593 48.7212 162.563 50.1321 162.563 50.1321L168.247 45.3454C167.693 44.8496 167.527 43.8419 167.479 42.9954C167.424 41.9877 166.077 42.4915 166.077 42.4915L166.241 42.6931C166.319 42.7933 166.375 42.9089 166.405 43.0323C166.435 43.1556 166.439 43.2839 166.416 43.4087C166.393 43.5336 166.343 43.6521 166.271 43.7566C166.199 43.8612 166.105 43.9493 165.996 44.0152L159.912 47.7135Z" fill="white"/>
<path opacity="0.1" d="M157.283 48.4673C158.017 49.342 159.058 50.3356 159.01 49.8378C158.961 49.34 159.63 48.2416 160.057 47.7498C159.391 47.5393 158.672 47.5592 158.019 47.8062C157.719 47.9574 157.465 48.1856 157.283 48.4673Z" fill="black"/>
<path d="M157.172 48.1307C157.906 49.0074 158.945 49.999 158.897 49.5032C158.848 49.0074 159.449 48.1992 159.875 47.7075C159.269 47.4717 158.444 47.25 157.906 47.4717C157.606 47.6222 157.353 47.8498 157.172 48.1307Z" fill="white"/>
<path d="M159.01 52.7823C159.258 52.7823 159.459 52.582 159.459 52.3349C159.459 52.0878 159.258 51.8875 159.01 51.8875C158.762 51.8875 158.561 52.0878 158.561 52.3349C158.561 52.582 158.762 52.7823 159.01 52.7823Z" fill="#FF718D"/>
<path d="M155.606 64.8568C155.854 64.8568 156.055 64.6565 156.055 64.4094C156.055 64.1623 155.854 63.962 155.606 63.962C155.358 63.962 155.157 64.1623 155.157 64.4094C155.157 64.6565 155.358 64.8568 155.606 64.8568Z" fill="#FF718D"/>
<path d="M151.756 77.0825C152.004 77.0825 152.205 76.8822 152.205 76.6351C152.205 76.388 152.004 76.1876 151.756 76.1876C151.508 76.1876 151.307 76.388 151.307 76.6351C151.307 76.8822 151.508 77.0825 151.756 77.0825Z" fill="#FF718D"/>
<path d="M151.643 90.3864C151.891 90.3864 152.092 90.1861 152.092 89.939C152.092 89.6919 151.891 89.4915 151.643 89.4915C151.395 89.4915 151.194 89.6919 151.194 89.939C151.194 90.1861 151.395 90.3864 151.643 90.3864Z" fill="#FF718D"/>
<path d="M157.028 58.484C157.276 58.484 157.477 58.2837 157.477 58.0366C157.477 57.7895 157.276 57.5892 157.028 57.5892C156.78 57.5892 156.579 57.7895 156.579 58.0366C156.579 58.2837 156.78 58.484 157.028 58.484Z" fill="#FF718D"/>
<path d="M153.999 70.8951C154.247 70.8951 154.448 70.6948 154.448 70.4477C154.448 70.2006 154.247 70.0002 153.999 70.0002C153.751 70.0002 153.55 70.2006 153.55 70.4477C153.55 70.6948 153.751 70.8951 153.999 70.8951Z" fill="#FF718D"/>
<path d="M151.044 83.0825C151.292 83.0825 151.493 82.8821 151.493 82.635C151.493 82.3879 151.292 82.1876 151.044 82.1876C150.796 82.1876 150.595 82.3879 150.595 82.635C150.595 82.8821 150.796 83.0825 151.044 83.0825Z" fill="#FF718D"/>
<path d="M151.718 91.8778C151.966 91.8778 152.167 91.6775 152.167 91.4304C152.167 91.1833 151.966 90.983 151.718 90.983C151.47 90.983 151.269 91.1833 151.269 91.4304C151.269 91.6775 151.47 91.8778 151.718 91.8778Z" fill="#FF718D"/>
<path opacity="0.1" d="M168.247 45.6175C168.247 45.6175 168.172 44.9463 169.143 46.1032C170.114 47.26 171.948 48.2637 171.948 48.2637C171.948 48.2637 176.099 51.172 176.324 52.5123C176.548 53.8525 177.893 59.6691 177.183 61.6059C176.474 63.5428 171.046 72.8259 171.046 72.8259C171.046 72.8259 172.462 74.5047 172.132 76.4799C171.802 78.455 171.384 81.1759 171.57 81.7724C171.756 82.369 171.345 83.8584 171.974 84.3804C172.603 84.9024 173.283 85.7912 171.301 86.9884C171.301 86.9884 170.927 87.9961 171.262 88.2198C171.598 88.4435 166.29 90.7532 164.185 89.5238C162.08 88.2944 158.32 78.455 158.239 76.2562C158.158 74.0573 159.398 66.7836 160.071 65.0745C160.745 63.3654 162.765 56.6883 163.625 55.1989C164.484 53.7094 168.247 45.6175 168.247 45.6175Z" fill="black"/>
<path d="M168.47 45.6175C168.47 45.6175 168.395 44.9463 169.368 46.1032C170.34 47.26 172.172 48.2637 172.172 48.2637C172.172 48.2637 176.324 51.172 176.548 52.5123C176.773 53.8525 178.118 59.6691 177.408 61.6059C176.698 63.5428 171.274 72.8259 171.274 72.8259C171.274 72.8259 172.69 74.5047 172.36 76.4799C172.031 78.455 171.612 81.1759 171.798 81.7724C171.984 82.369 171.574 83.8584 172.203 84.3804C172.832 84.9024 173.511 85.7912 171.529 86.9884C171.529 86.9884 171.155 87.9961 171.491 88.2198C171.827 88.4435 166.518 90.7532 164.413 89.5238C162.308 88.2944 158.549 78.455 158.468 76.2562C158.387 74.0573 159.627 66.7836 160.3 65.0745C160.973 63.3654 162.994 56.6883 163.853 55.1989C164.712 53.7094 168.47 45.6175 168.47 45.6175Z" fill="#4C4981"/>
<path opacity="0.1" d="M169.966 51.9621C169.966 51.9621 166.751 55.5032 166.862 57.8512C166.862 57.8512 166.826 54.048 169.966 51.9621Z" fill="black"/>
<path opacity="0.1" d="M165.517 57.7766C165.517 57.8875 163.347 65.9371 163.461 66.9448C163.574 67.9526 162.824 70.9314 162.824 70.9314L161.812 70.6714C161.812 70.6714 162.597 66.5337 162.747 65.006C162.896 63.4783 165.517 57.7766 165.517 57.7766Z" fill="black"/>
<path opacity="0.1" d="M164.656 80.7345C164.731 80.8453 169.78 86.547 168.358 86.9582C166.937 87.3693 164.656 80.7345 164.656 80.7345Z" fill="black"/>
<path opacity="0.1" d="M168.807 79.2753C168.919 79.3499 170.83 83.3747 171.05 82.2985C171.27 81.2222 169.406 85.243 169.107 82.2622L168.807 79.2753Z" fill="black"/>
<path opacity="0.1" d="M159.115 46.8932C159.115 46.8932 157.03 45.6255 154.411 48.8684C154.411 48.8684 152.504 49.9486 151.944 50.2106C151.384 50.4726 150.747 57.4037 150.747 57.4037C150.747 57.4037 149.514 60.3846 149.849 62.0997C150.185 63.8149 148.879 69.702 148.879 69.702C148.879 69.702 146.707 80.283 146.78 80.5853C146.852 80.8877 148.986 77.2679 148.949 75.4782C148.913 73.6885 150.743 68.0997 151.006 67.7631C151.269 67.4265 153.063 57.8512 153.063 57.8512C153.063 57.8512 154.521 53.788 155.455 52.4458C156.389 51.1035 157.55 48.5701 158.035 48.1226C158.385 47.8213 158.775 47.5703 159.194 47.3769L159.115 46.8932Z" fill="black"/>
<path d="M159.141 46.8932C159.141 46.8932 156.804 45.6255 154.187 48.8684C154.187 48.8684 152.278 49.9486 151.718 50.2106C151.158 50.4726 150.521 57.4037 150.521 57.4037C150.521 57.4037 149.287 60.3846 149.623 62.0997C149.958 63.8149 148.652 69.702 148.652 69.702C148.652 69.702 146.482 80.287 146.557 80.5853C146.632 80.8836 148.763 77.2679 148.727 75.4782C148.69 73.6885 150.521 68.0997 150.783 67.7631C151.046 67.4265 152.846 57.8512 152.846 57.8512C152.846 57.8512 154.304 53.788 155.238 52.4458C156.173 51.1035 157.333 48.5701 157.819 48.1226C158.304 47.6752 159.202 47.3769 159.202 47.3769L159.141 46.8932Z" fill="#4C4981"/>
<path d="M148.877 70.1857C148.877 70.1857 144.428 67.2794 142.276 68.7144C140.125 70.1494 136.614 72.181 140.07 73.6522C143.526 75.1235 148.315 74.8413 148.315 74.8413L148.877 70.1857Z" fill="#FEC2BE"/>
<path opacity="0.1" d="M151.97 98.2325C152.634 99.6433 153.184 106.774 153.552 109.033C154.084 108.126 154.727 107.04 154.943 106.701C155.218 106.27 155.881 104.436 156.251 103.378C155.829 102.354 154.662 99.4196 154.662 98.3393C154.662 97.0253 152.531 95.3766 152.531 95.3766C152.531 95.3766 151.186 96.5557 151.97 98.2325Z" fill="black"/>
<path opacity="0.1" d="M166.273 120.118C166.273 120.118 161.337 118.022 159.879 119.514C158.421 121.005 166.273 120.118 166.273 120.118Z" fill="black"/>
<path opacity="0.1" d="M163.497 120.957C163.497 120.957 168.49 123.752 166.779 124.22C165.068 124.687 163.497 120.957 163.497 120.957Z" fill="black"/>
<path opacity="0.1" d="M148.577 118.526C148.577 118.526 150.709 118.665 149.896 119.084C149.083 119.503 148.577 118.526 148.577 118.526Z" fill="black"/>
<path opacity="0.1" d="M145.912 119.169C145.94 119.308 152.11 121.293 150.905 122.192C149.7 123.091 145.912 119.169 145.912 119.169Z" fill="black"/>
<path opacity="0.1" d="M165.544 136.276C164.619 136.135 159.459 133.759 161.477 135.47C163.495 137.181 165.544 136.276 165.544 136.276Z" fill="black"/>
<path opacity="0.1" d="M162.991 138.148C162.991 138.148 162.542 139.882 160.831 139.658C159.121 139.434 162.991 138.148 162.991 138.148Z" fill="black"/>
<path opacity="0.1" d="M164.423 141.669C164.114 141.587 160.439 139.91 160.356 140.692C160.273 141.474 163.861 142.844 164.142 142.425C164.303 142.203 164.4 141.942 164.423 141.669Z" fill="black"/>
<path opacity="0.1" d="M152.531 139.658C152.082 139.63 147.879 138.287 147.034 139.489L152.531 139.658Z" fill="black"/>
<path opacity="0.1" d="M148.717 140.44C148.717 140.44 147.987 139.797 147.259 140.131C146.531 140.466 148.717 140.44 148.717 140.44Z" fill="black"/>
<path opacity="0.1" d="M158.029 147.373C157.982 147.61 157.866 147.829 157.697 148.003C157.528 148.176 157.311 148.297 157.074 148.35L158.029 147.373Z" fill="black"/>
<path d="M136.628 149.999C136.909 151.146 140.836 151.257 142.715 150.95C144.593 150.644 148.492 149.523 148.492 149.523C148.492 149.523 152.587 149.132 153.792 148.631C154.998 148.129 154.045 146.841 154.045 146.841C154.045 146.841 154.045 146.797 154.045 146.72C154.073 146.252 154.158 144.557 153.869 144.1C153.534 143.568 153.73 141.835 153.73 141.835C153.73 141.835 147.924 142.953 147.811 142.423C147.697 141.893 146.8 141.137 146.381 140.97C145.962 140.803 145.651 142.367 145.651 142.367C145.651 142.367 143.022 144.604 142.846 145.414C142.67 146.224 140.824 146.643 140.824 146.643C140.824 146.643 138.019 147.425 137.289 147.816C137.077 147.916 136.895 148.068 136.759 148.258C136.624 148.449 136.54 148.671 136.517 148.903C136.486 149.272 136.524 149.643 136.628 149.999Z" fill="#CA8496"/>
<path opacity="0.1" d="M136.628 149.999C136.909 151.146 140.836 151.257 142.715 150.95C144.594 150.644 148.492 149.523 148.492 149.523C148.492 149.523 152.587 149.132 153.793 148.631C154.998 148.129 154.045 146.841 154.045 146.841C154.045 146.841 154.045 146.797 154.045 146.72L148.181 148.016C148.181 148.016 145.291 149.245 143.441 149.245C141.823 149.245 138.203 149.904 136.525 148.905C136.492 149.273 136.527 149.644 136.628 149.999Z" fill="black"/>
<path opacity="0.1" d="M144.565 145.583C144.565 145.583 144.846 147.427 145.969 148.042L144.565 145.583Z" fill="black"/>
<path opacity="0.1" d="M151.928 35.7982C152.035 35.8545 152.146 35.9011 152.262 35.9373C152.787 36.0784 153.301 35.7237 153.768 35.4415C154.235 35.1593 154.88 34.9497 155.285 35.3165C155.813 35.7942 155.43 36.814 155.974 37.2756C156.318 37.5678 156.864 37.467 157.246 37.7069C157.629 37.9467 157.744 38.4727 157.841 38.9262C157.938 39.3797 158.132 39.8976 158.577 40.0307C159.022 40.1637 159.436 39.8714 159.875 39.8876C159.966 39.8876 160.077 39.9017 160.134 39.8372C160.174 39.7781 160.189 39.7058 160.177 39.6356C160.122 39.094 160.17 38.5469 160.32 38.0233C160.5 37.5073 160.927 37.0418 161.461 36.9591C162.247 36.8382 162.909 37.5255 163.372 38.1684C163.858 38.8492 164.302 39.5601 164.698 40.2967C164.723 40.3444 164.746 40.3935 164.765 40.4438C165.145 39.5885 165.344 38.6645 165.351 37.7292C165.357 36.7938 165.17 35.8672 164.802 35.0069C164.434 34.1465 163.892 33.3709 163.21 32.7281C162.528 32.0854 161.721 31.5893 160.839 31.2706C159.956 30.952 159.018 30.8177 158.081 30.876C157.144 30.9343 156.23 31.184 155.394 31.6096C154.558 32.0352 153.819 32.6275 153.223 33.3498C152.627 34.0722 152.186 34.909 151.928 35.8083V35.7982Z" fill="black"/>
<path d="M163.372 38.0555C162.908 37.4066 162.247 36.7213 161.459 36.8463C160.919 36.9289 160.502 37.3945 160.32 37.9084C160.17 38.4319 160.122 38.9792 160.178 39.5208C160.19 39.5911 160.174 39.6631 160.134 39.7223C160.071 39.7888 159.966 39.7787 159.875 39.7747C159.436 39.7586 159 40.0428 158.577 39.9178C158.154 39.7928 157.938 39.2668 157.841 38.8133C157.744 38.3599 157.639 37.8419 157.246 37.594C156.854 37.3461 156.318 37.4549 155.974 37.1607C155.43 36.7012 155.815 35.6793 155.285 35.2017C154.88 34.8369 154.235 35.0465 153.768 35.3286C153.301 35.6108 152.787 35.9635 152.26 35.8224C152.082 35.7741 151.922 35.6733 151.748 35.6068C150.917 35.2903 149.839 35.8265 149.155 35.2581C148.907 35.0108 148.729 34.7029 148.638 34.3653C148.45 33.9087 148.323 33.4297 148.26 32.9403C148.199 32.4457 148.336 31.9472 148.64 31.5517C149.085 31.0297 149.837 30.8987 150.405 30.5138C150.888 30.1832 151.214 29.6814 151.534 29.1876C151.853 28.6938 152.162 28.1799 152.63 27.8312C153.097 27.4825 153.752 27.3092 154.274 27.5732C154.438 27.6876 154.621 27.7741 154.814 27.8292C155.024 27.8319 155.231 27.7753 155.41 27.6659C157.355 26.7529 159.62 26.9142 161.754 27.1863C162.607 27.2951 163.473 27.4221 164.251 27.7909C165.03 28.1597 165.717 28.7986 165.936 29.629C166.11 30.286 165.976 31.0015 166.186 31.6444C166.328 32.0838 166.619 32.4506 166.793 32.892C167.248 34.071 166.704 35.3649 166.474 36.6064C166.223 37.9628 166.348 39.428 165.77 40.7139C165.657 40.9658 165.529 41.4072 165.244 41.2419C165.042 41.119 164.828 40.4035 164.706 40.1798C164.307 39.444 163.861 38.7345 163.372 38.0555Z" fill="#9A5E7F"/>
<path opacity="0.1" d="M175.697 59.9009L176.708 62.7709C176.708 62.7709 174.314 71.6388 173.192 73.5031C172.069 75.3674 170.425 77.7516 170.425 77.7516C170.425 77.7516 167.659 79.1322 164.441 78.4973C161.224 77.8625 151.835 76.1876 151.835 76.1876C151.835 76.1876 151.048 76.3368 150.638 75.7402C150.227 75.1436 148.09 74.8413 148.09 74.8413C148.09 74.8413 145.623 71.2639 148.652 69.7725C148.652 69.7725 149.026 70.5928 150.634 70.0345C152.242 69.4762 152.727 70.4799 152.727 70.4799C152.727 70.4799 155.356 71.0019 156.804 70.8165C158.252 70.6311 161.889 70.5545 162.264 70.2562C162.358 70.1734 162.482 70.131 162.608 70.1381C162.734 70.1453 162.852 70.2014 162.937 70.2945C162.937 70.2945 163.833 69.9599 164.132 69.6234C164.431 69.2868 164.844 69.9962 164.844 69.9962C164.844 69.9962 165.368 69.6979 165.218 69.3251C165.068 68.9522 165.703 67.5374 165.703 67.5374C165.703 67.5374 166.003 66.6042 165.817 65.8585C165.631 65.1128 166.751 62.4323 166.751 62.4323C166.765 61.98 166.715 61.528 166.601 61.09C166.413 60.4209 168.017 59.0745 168.017 59.0745C168.017 59.0745 169.586 51.4703 172.915 53.9674C176.243 56.4646 175.697 59.9009 175.697 59.9009Z" fill="black"/>
<path d="M175.911 59.9009L176.922 62.7709C176.922 62.7709 174.528 71.6388 173.406 73.5031C172.283 75.3674 170.641 77.7516 170.641 77.7516C170.641 77.7516 167.875 79.1322 164.658 78.4973C161.44 77.8625 152.055 76.1876 152.055 76.1876C152.055 76.1876 151.271 76.3368 150.86 75.7402C150.45 75.1436 148.314 74.8413 148.314 74.8413C148.314 74.8413 145.847 71.2639 148.876 69.7725C148.876 69.7725 149.251 70.5928 150.858 70.0345C152.466 69.4762 152.951 70.4799 152.951 70.4799C152.951 70.4799 155.58 71.0019 157.028 70.8165C158.476 70.6311 162.114 70.5545 162.488 70.2562C162.583 70.1734 162.707 70.131 162.832 70.1381C162.958 70.1453 163.077 70.2014 163.161 70.2945C163.161 70.2945 164.057 69.9599 164.356 69.6234C164.656 69.2868 165.068 69.9962 165.068 69.9962C165.068 69.9962 165.592 69.6979 165.442 69.3251C165.293 68.9522 165.928 67.5374 165.928 67.5374C165.928 67.5374 166.227 66.6042 166.039 65.8585C165.851 65.1128 166.975 62.4323 166.975 62.4323C166.99 61.98 166.939 61.528 166.826 61.09C166.637 60.4209 168.241 59.0745 168.241 59.0745C168.241 59.0745 169.81 51.4703 173.139 53.9674C176.467 56.4646 175.911 59.9009 175.911 59.9009Z" fill="#4C4981"/>
<path opacity="0.1" d="M151.606 71.9008C151.643 72.1628 152.466 73.2048 152.167 73.3922C151.867 73.5797 151.382 73.4668 151.831 74.0634C152.28 74.66 152.235 75.5528 151.942 75.4419C151.649 75.3311 151.157 73.9888 151.157 73.4668C151.157 72.9448 151.606 71.9008 151.606 71.9008Z" fill="black"/>
<path opacity="0.1" d="M162.712 71.3042C162.712 71.3042 162.937 73.9142 164.777 74.6599C166.617 75.4057 162.712 71.3042 162.712 71.3042Z" fill="black"/>
<path opacity="0.1" d="M166.526 70.4074C166.637 70.4457 169.143 71.7879 168.023 72.5699C166.902 73.3519 166.526 70.4074 166.526 70.4074Z" fill="black"/>
<path opacity="0.1" d="M166.676 68.5471C166.676 68.5471 170.34 69.2928 169.102 69.9257C167.865 70.5585 166.676 68.5471 166.676 68.5471Z" fill="black"/>
<g opacity="0.1">
<path opacity="0.1" d="M160.328 37.2695C160.51 36.7556 160.935 36.29 161.467 36.2074C162.255 36.0864 162.917 36.7737 163.38 37.4166C163.867 38.0975 164.31 38.8083 164.706 39.5449C164.828 39.7686 165.034 40.4821 165.244 40.6051C165.529 40.7723 165.649 40.331 165.77 40.079C166.348 38.7972 166.223 37.328 166.474 35.9716C166.621 35.1795 166.894 34.3592 166.955 33.5732C167.042 34.5487 166.658 35.5745 166.474 36.5661C166.223 37.9225 166.348 39.3877 165.77 40.6756C165.657 40.9275 165.529 41.3689 165.244 41.2016C165.042 41.0787 164.828 40.3652 164.706 40.1415C164.31 39.4049 163.867 38.694 163.38 38.0132C162.917 37.3662 162.255 36.679 161.467 36.8039C160.927 36.8866 160.51 37.3521 160.328 37.8661C160.238 38.1369 160.188 38.4193 160.179 38.7045C160.139 38.2211 160.189 37.7344 160.328 37.2695Z" fill="black"/>
<path opacity="0.1" d="M148.638 33.7264C148.729 34.0648 148.907 34.3735 149.156 34.6212C149.839 35.1896 150.917 34.6535 151.748 34.9699C151.922 35.0344 152.082 35.1372 152.26 35.1855C152.787 35.3246 153.303 34.9719 153.768 34.6897C154.233 34.4076 154.882 34.2 155.285 34.5648C155.815 35.0424 155.43 36.0623 155.974 36.5238C156.318 36.816 156.864 36.7253 157.246 36.9571C157.629 37.1889 157.744 37.721 157.841 38.1664C157.938 38.6118 158.13 39.1378 158.577 39.2708C159.024 39.4039 159.436 39.1136 159.875 39.1298C159.966 39.1298 160.077 39.1439 160.134 39.0774C160.147 39.0604 160.158 39.0413 160.164 39.0209C160.164 39.1721 160.164 39.3212 160.179 39.4704C160.19 39.5407 160.174 39.6127 160.134 39.6719C160.071 39.7364 159.966 39.7263 159.875 39.7223C159.436 39.7082 159 39.9903 158.577 39.8654C158.154 39.7404 157.938 39.2164 157.841 38.7609C157.744 38.3054 157.639 37.7895 157.246 37.5517C156.854 37.3138 156.318 37.4106 155.974 37.1183C155.43 36.6568 155.815 35.635 155.285 35.1593C154.88 34.7925 154.235 35.0021 153.768 35.2843C153.301 35.5665 152.787 35.9192 152.26 35.7801C152.082 35.7317 151.922 35.6289 151.748 35.5644C150.917 35.248 149.839 35.7841 149.156 35.2158C148.907 34.9677 148.729 34.6592 148.638 34.3209C148.451 33.8649 148.323 33.3866 148.26 32.898C148.246 32.7315 148.25 32.5639 148.272 32.3982C148.342 32.8535 148.465 33.2991 148.638 33.7264Z" fill="black"/>
</g>
<path d="M20.1775 146.438C20.1775 146.438 11.6276 145.924 12.6347 151.894C12.6347 151.894 12.4325 152.95 13.395 153.429C13.395 153.429 13.4092 152.986 14.2727 153.135C14.5792 153.186 14.8907 153.202 15.2009 153.181C15.62 153.153 16.0182 152.988 16.3353 152.714C16.3353 152.714 18.7397 151.724 19.674 147.808C19.674 147.808 20.3656 146.956 20.3373 146.736L18.8954 147.341C18.8954 147.341 19.3889 148.379 19.0006 149.241C19.0006 149.241 18.9541 147.379 18.677 147.427C18.6204 147.427 17.9268 147.786 17.9268 147.786C17.9268 147.786 18.7761 149.6 18.129 150.908C18.129 150.908 18.3717 148.681 17.6558 147.917L16.6447 148.508C16.6447 148.508 17.6356 150.374 16.9642 151.898C16.9642 151.898 17.1361 149.562 16.4304 148.653L15.5103 149.368C15.5103 149.368 16.4425 151.206 15.8743 152.47C15.8743 152.47 15.7994 149.751 15.3121 149.546C15.3121 149.546 14.5032 150.253 14.3839 150.553C14.3839 150.553 15.0209 151.89 14.6245 152.595C14.6245 152.595 14.3819 150.781 14.1837 150.781C14.1837 150.781 13.3748 151.98 13.298 152.797C13.298 152.797 13.3324 151.573 13.9896 150.658C13.5269 150.746 13.1002 150.966 12.7621 151.293C12.7621 151.293 12.8855 150.445 14.1878 150.37C14.1878 150.37 14.851 149.459 15.027 149.405C15.027 149.405 13.7328 149.296 12.9481 149.642C12.9481 149.642 13.6397 148.836 15.2656 149.207L16.1736 148.467C16.1736 148.467 14.4688 148.236 13.7469 148.492C13.7469 148.492 14.578 147.784 16.4182 148.3L17.4071 147.71C17.4071 147.71 15.9552 147.397 15.0897 147.508C15.0897 147.508 16.0017 147.018 17.6983 147.55L18.404 147.234C18.404 147.234 17.3404 147.032 17.0289 146.992C16.7175 146.952 16.6993 146.873 16.6993 146.873C17.3737 146.761 18.0661 146.838 18.6993 147.095C18.6993 147.095 20.2018 146.531 20.1775 146.438Z" fill="#0057FF"/>
<path opacity="0.1" d="M14.2887 154.969C17.6303 154.969 20.3391 154.513 20.3391 153.949C20.3391 153.386 17.6303 152.93 14.2887 152.93C10.9471 152.93 8.23828 153.386 8.23828 153.949C8.23828 154.513 10.9471 154.969 14.2887 154.969Z" fill="#1A35B6"/>
<path d="M36.5695 130.703C36.5695 130.703 31.7486 130.413 32.3229 133.781C32.2939 133.952 32.3197 134.127 32.3967 134.282C32.4737 134.438 32.5979 134.565 32.7516 134.645C32.7516 134.645 32.7516 134.396 33.2471 134.48C33.4201 134.508 33.5958 134.517 33.7708 134.506C34.0067 134.489 34.2306 134.396 34.4098 134.242C34.4098 134.242 35.7607 133.692 36.2945 131.475C36.2945 131.475 36.6848 130.993 36.6686 130.871L35.8597 131.215C35.8597 131.215 36.1368 131.802 35.9184 132.287C35.9184 132.287 35.8921 131.237 35.7364 131.262C35.704 131.262 35.3137 131.463 35.3137 131.463C35.3137 131.463 35.791 132.471 35.431 133.223C35.431 133.223 35.5665 131.967 35.1641 131.536L34.5878 131.878C34.5878 131.878 35.1459 132.93 34.7678 133.789C34.7678 133.789 34.8648 132.471 34.4664 131.959L33.9488 132.362C33.9488 132.362 34.4725 133.4 34.151 134.111C34.151 134.111 34.1085 132.578 33.8335 132.463C33.6371 132.629 33.4613 132.818 33.3097 133.025C33.3097 133.025 33.6697 133.779 33.4473 134.176C33.4473 134.176 33.3097 133.154 33.1985 133.15C33.1985 133.15 32.7455 133.825 32.699 134.291C32.72 133.861 32.8539 133.444 33.0873 133.081C32.8268 133.132 32.5865 133.256 32.3957 133.44C32.3957 133.44 32.4665 132.961 33.2046 132.92C33.2046 132.92 33.5767 132.406 33.6778 132.376C33.6778 132.376 32.9478 132.314 32.5049 132.509C32.5049 132.509 32.8952 132.058 33.8112 132.263L34.3229 131.846C34.3229 131.846 33.3623 131.715 32.9559 131.86C32.9559 131.86 33.425 131.457 34.4624 131.751L35.0185 131.421C34.5899 131.326 34.1507 131.288 33.7122 131.308C33.7122 131.308 34.2278 131.03 35.1823 131.33L35.5867 131.153C35.5867 131.153 34.9801 131.034 34.8122 131.016C34.6444 130.998 34.6262 130.949 34.6262 130.949C35.0067 130.886 35.3973 130.929 35.7546 131.074C35.7546 131.074 36.5918 130.756 36.5695 130.703Z" fill="#0057FF"/>
<path opacity="0.1" d="M33.2572 135.512C35.1413 135.512 36.6686 135.255 36.6686 134.938C36.6686 134.62 35.1413 134.363 33.2572 134.363C31.3731 134.363 29.8457 134.62 29.8457 134.938C29.8457 135.255 31.3731 135.512 33.2572 135.512Z" fill="#1A35B6"/>
<path d="M8.1273 133.626C8.1273 133.626 2.3074 133.275 3.00102 137.34C2.9658 137.546 2.99691 137.758 3.08989 137.946C3.18287 138.133 3.33296 138.287 3.5187 138.384C3.5187 138.384 3.5187 138.082 4.11525 138.183C4.32427 138.218 4.53676 138.228 4.7482 138.213C5.03374 138.194 5.30514 138.082 5.52068 137.894C5.52068 137.894 7.15664 137.221 7.79363 134.557C7.79363 134.557 8.26278 133.976 8.24459 133.827L7.24764 134.246C7.24764 134.246 7.58131 134.952 7.31842 135.538C7.31842 135.538 7.28606 134.273 7.098 134.303C7.05958 134.303 6.5884 134.547 6.5884 134.547C6.5884 134.547 7.16473 135.776 6.72996 136.671C6.72996 136.671 6.89376 135.155 6.4064 134.635L5.71683 135.038C5.71683 135.038 6.39023 136.308 5.93321 137.344C5.93321 137.344 6.0505 135.754 5.57124 135.127L4.94435 135.615C4.94435 135.615 5.5773 136.866 5.19106 137.727C5.19106 137.727 5.14051 135.875 4.80887 135.736C4.80887 135.736 4.26085 136.218 4.17592 136.415C4.17592 136.415 4.61069 137.324 4.34174 137.804C4.34174 137.804 4.17592 136.57 4.04043 136.564C4.04043 136.564 3.49444 137.382 3.43377 137.943C3.46084 137.425 3.62327 136.923 3.90494 136.488C3.58947 136.546 3.29833 136.696 3.06775 136.919C3.06775 136.919 3.15268 136.34 4.04043 136.29C4.04043 136.29 4.49138 135.671 4.61069 135.633C4.61069 135.633 3.73103 135.558 3.19515 135.794C3.19515 135.794 3.66632 135.25 4.77247 135.498L5.39126 134.994C5.39126 134.994 4.23052 134.837 3.73912 135.012C3.73912 135.012 4.30534 134.529 5.5591 134.881L6.2325 134.478C6.2325 134.478 5.24364 134.265 4.65518 134.341C4.65518 134.341 5.276 134.007 6.43067 134.369L6.91196 134.154C6.91196 134.154 6.18801 134.013 5.97568 133.99C5.76335 133.968 5.75121 133.91 5.75121 133.91C6.20995 133.832 6.68128 133.884 7.11215 134.059C7.11215 134.059 8.1455 133.692 8.1273 133.626Z" fill="#0057FF"/>
<path opacity="0.1" d="M4.11922 139.432C6.39421 139.432 8.23845 139.122 8.23845 138.739C8.23845 138.356 6.39421 138.046 4.11922 138.046C1.84424 138.046 0 138.356 0 138.739C0 139.122 1.84424 139.432 4.11922 139.432Z" fill="#1A35B6"/>
<defs>
<linearGradient id="paint0_linear" x1="144.254" y1="54.2435" x2="144.254" y2="47.8082" gradientUnits="userSpaceOnUse">
<stop stop-color="#808080" stop-opacity="0.25"/>
<stop offset="0.54" stop-color="#808080" stop-opacity="0.12"/>
<stop offset="1" stop-color="#808080" stop-opacity="0.1"/>
</linearGradient>
<linearGradient id="paint1_linear" x1="60257.1" y1="103440" x2="60257.1" y2="22047.7" gradientUnits="userSpaceOnUse">
<stop stop-color="#808080" stop-opacity="0.25"/>
<stop offset="0.54" stop-color="#808080" stop-opacity="0.12"/>
<stop offset="1" stop-color="#808080" stop-opacity="0.1"/>
</linearGradient>
</defs>
</svg>
