<svg width="18" height="24" viewBox="0 0 18 24" fill="none" xmlns="http://www.w3.org/2000/svg">
<path d="M7.32001 0.47999C6.65905 0.48719 6.02079 0.826708 5.65407 1.43343L5.52657 1.64437C5.34513 1.94389 5.02805 2.12608 4.67813 2.1328L4.43251 2.13843C3.36979 2.16051 2.52053 3.00929 2.49845 4.07249L2.49376 4.31812C2.48656 4.66756 2.30342 4.98511 2.00438 5.16655L1.79345 5.29312C0.884326 5.8432 0.573931 7.00473 1.08657 7.93593L1.2047 8.15062C1.37318 8.45734 1.37318 8.82265 1.2047 9.12937L1.08657 9.34499C0.574411 10.2762 0.885263 11.4368 1.79438 11.9869L2.00438 12.1144C2.3039 12.2958 2.48656 12.6124 2.49376 12.9619L2.49845 13.2075C2.52053 14.2702 3.36979 15.1204 4.43251 15.1425L4.67813 15.1472C5.02757 15.1544 5.34513 15.3366 5.52657 15.6366L5.65313 15.8466C6.02417 16.4595 6.67293 16.8 7.34157 16.8C7.66461 16.8 7.99165 16.7205 8.29501 16.5534L8.51063 16.4353C8.81687 16.2663 9.1836 16.2663 9.49032 16.4353L9.70501 16.5534C10.6362 17.0651 11.7973 16.7552 12.3469 15.8466L12.4744 15.6356C12.6558 15.3361 12.9729 15.1539 13.3228 15.1472L13.5675 15.1416C14.6302 15.1195 15.4804 14.2707 15.5025 13.2075L15.5072 12.9619C15.5144 12.6124 15.6966 12.2949 15.9956 12.1134L16.2066 11.9869C17.1147 11.4368 17.4256 10.2762 16.9134 9.34499L16.7953 9.12937C16.6268 8.82265 16.6268 8.45734 16.7953 8.15062L16.9134 7.93593C17.4256 7.00473 17.1148 5.8432 16.2056 5.29312L15.9956 5.16655C15.6961 4.98511 15.5135 4.66756 15.5063 4.31812L15.5016 4.07249C15.4795 3.00977 14.6302 2.16051 13.5675 2.13843L13.3219 2.1328C12.9724 2.1256 12.6549 1.94343 12.4734 1.64343L12.3469 1.43437C11.9797 0.827645 11.341 0.48719 10.68 0.47999C10.3502 0.47615 10.0146 0.556153 9.70501 0.726553L9.48938 0.844678C9.18314 1.01364 8.81642 1.01364 8.5097 0.844678L8.29501 0.726553C7.98541 0.555673 7.64977 0.47663 7.32001 0.47999ZM12.4959 5.32124L13.305 5.83874L8.73938 12.975L4.71845 9.35624L5.36157 8.64374L8.54063 11.505L12.4959 5.32124ZM14.5744 15.9084C14.2667 16.0255 13.9352 16.0953 13.5872 16.1025L13.3416 16.1072C13.3204 16.1077 13.3057 16.1161 13.2947 16.1344L13.1672 16.3444C12.6853 17.1412 11.8779 17.6462 10.9688 17.7412L10.8309 18.0572L9.53813 21.0112L10.5094 23.2322C10.5766 23.3863 10.7197 23.4932 10.8863 23.5153C10.9083 23.5182 10.9289 23.52 10.95 23.52C11.0945 23.52 11.2333 23.4542 11.325 23.34L13.1016 21.12H16.2309C16.3946 21.12 16.5472 21.0365 16.635 20.8987C16.7228 20.761 16.7346 20.5872 16.6659 20.4384L14.5744 15.9084ZM3.45095 15.9169L1.36501 20.4384C1.29637 20.5872 1.30763 20.76 1.39595 20.8978C1.48331 21.036 1.63633 21.12 1.80001 21.12H4.92938L6.70595 23.34C6.79715 23.4542 6.93553 23.52 7.08001 23.52C7.10065 23.52 7.1217 23.5182 7.14282 23.5153C7.30938 23.4932 7.4525 23.3863 7.5197 23.2322L9.95157 17.6728C9.70581 17.6114 9.46696 17.5196 9.24376 17.3972L9.02626 17.2781C9.01714 17.2728 9.00771 17.2706 8.99907 17.2706C8.99091 17.2706 8.98384 17.2728 8.97376 17.2781L8.75813 17.3962C8.32421 17.6348 7.83405 17.7619 7.34157 17.7619C6.30669 17.7619 5.36898 17.2319 4.83282 16.3453L4.70532 16.1344C4.69428 16.1161 4.68005 16.1077 4.65845 16.1072L4.41282 16.1025C4.07442 16.0953 3.75143 16.0282 3.45095 15.9169Z" fill="#1A35B6"/>
</svg>
