<svg width="212" height="62" viewBox="0 0 212 62" fill="none" xmlns="http://www.w3.org/2000/svg">
<path d="M79.9341 26.1953C79.9341 19.6932 78.0801 16.3551 74.3721 16.1724C72.8968 16.1027 71.4562 16.3377 70.0548 16.8818C68.9363 17.2821 68.1834 17.6782 67.7874 18.0786V33.5982C70.1593 35.0866 72.2657 35.7786 74.1023 35.6698C77.9887 35.413 79.9341 32.2577 79.9341 26.1953ZM84.5082 26.4651C84.5082 29.7683 83.7335 32.5102 82.1755 34.6906C80.439 37.1582 78.0323 38.429 74.9553 38.4987C72.6356 38.5727 70.2463 37.8458 67.7874 36.3226V50.4278L63.8096 49.009V17.6999C64.4624 16.8992 65.3023 16.2115 66.3207 15.6283C68.6883 14.2487 71.565 13.5393 74.951 13.5045L75.0075 13.5611C78.1019 13.5219 80.4868 14.7927 82.1624 17.3692C83.7248 19.7324 84.5082 22.7614 84.5082 26.4651Z" fill="#24262D"/>
<path d="M108.819 35.722C108.819 40.1525 108.375 43.2207 107.487 44.9267C106.595 46.6328 104.898 47.995 102.391 49.009C100.358 49.8098 98.1605 50.245 95.8016 50.319L95.1445 47.8122C97.5425 47.4858 99.2311 47.1594 100.21 46.833C102.138 46.1801 103.461 45.1792 104.188 43.8387C104.771 42.7463 105.059 40.6617 105.059 37.576V36.5402C102.338 37.7762 99.4879 38.3899 96.5067 38.3899C94.5482 38.3899 92.8204 37.7762 91.332 36.5402C89.6608 35.1954 88.8252 33.4894 88.8252 31.4221V14.8667L92.803 13.5045V30.1687C92.803 31.9487 93.3775 33.3197 94.5265 34.2815C95.6754 35.2433 97.1638 35.7046 98.9874 35.6698C100.811 35.6306 102.765 34.9256 104.841 33.546V14.1051H108.819V35.722Z" fill="#24262D"/>
<path d="M124.347 38.2812C123.873 38.3204 123.438 38.3378 123.037 38.3378C120.787 38.3378 119.033 37.8025 117.78 36.7275C116.531 35.6526 115.904 34.1685 115.904 32.2753V16.6077H113.18V14.1053H115.904V7.4596L119.878 6.04517V14.1053H124.347V16.6077H119.878V32.1665C119.878 33.6593 120.278 34.7169 121.079 35.3349C121.766 35.844 122.859 36.1356 124.347 36.2096V38.2812Z" fill="#24262D"/>
<path d="M148.432 37.9547H144.454V22.6005C144.454 21.0381 144.088 19.6933 143.362 18.5704C142.522 17.2996 141.355 16.6642 139.858 16.6642C138.035 16.6642 135.754 17.626 133.017 19.5497V37.9547H129.039V1.25341L133.017 0V16.7164C135.558 14.8668 138.335 13.9398 141.351 13.9398C143.457 13.9398 145.163 14.6492 146.469 16.0636C147.779 17.4781 148.432 19.2407 148.432 21.3471V37.9547Z" fill="#24262D"/>
<path d="M169.574 25.5686C169.574 23.0704 169.1 21.0076 168.156 19.3755C167.033 17.3866 165.288 16.3377 162.929 16.2289C158.568 16.4814 156.392 19.6062 156.392 25.5947C156.392 28.3409 156.844 30.6344 157.758 32.4754C158.925 34.8211 160.674 35.9788 163.007 35.9396C167.385 35.9048 169.574 32.4492 169.574 25.5686ZM173.931 25.5947C173.931 29.1503 173.021 32.1098 171.206 34.473C169.209 37.1191 166.45 38.4464 162.929 38.4464C159.438 38.4464 156.718 37.1191 154.755 34.473C152.975 32.1098 152.088 29.1503 152.088 25.5947C152.088 22.2523 153.049 19.4408 154.973 17.1516C157.006 14.7231 159.678 13.5045 162.981 13.5045C166.284 13.5045 168.974 14.7231 171.045 17.1516C172.969 19.4408 173.931 22.2523 173.931 25.5947Z" fill="#24262D"/>
<path d="M196.736 37.9547H192.758V21.73C192.758 19.95 192.223 18.5617 191.152 17.5607C190.081 16.564 188.654 16.081 186.874 16.1201C184.985 16.155 183.188 16.7729 181.482 17.9698V37.9547H177.504V17.478C179.793 15.8111 181.9 14.7231 183.823 14.2139C185.638 13.7395 187.24 13.5045 188.619 13.5045C189.564 13.5045 190.451 13.5959 191.287 13.7787C192.849 14.1399 194.12 14.8101 195.099 15.7937C196.192 16.8818 196.736 18.1874 196.736 19.715V37.9547Z" fill="#24262D"/>
<path d="M24.5214 1.40043C22.4748 1.40994 20.5203 1.58449 18.8006 1.8888C13.7345 2.78382 12.8147 4.65716 12.8147 8.11194V12.6746H24.7865V14.1955H12.8147H8.32172C4.84236 14.1955 1.79574 16.2868 0.842791 20.2652C-0.25642 24.8253 -0.305176 27.6709 0.842791 32.4324C1.69379 35.9767 3.72611 38.5021 7.20546 38.5021H11.3217V33.0324C11.3217 29.0809 14.7406 25.5953 18.8006 25.5953H30.7585C34.0872 25.5953 36.7444 22.8546 36.7444 19.5117V8.11194C36.7444 4.86749 34.0074 2.43028 30.7585 1.8888C28.7019 1.54645 26.568 1.39093 24.5214 1.40043ZM18.0471 5.07013C19.2837 5.07013 20.2936 6.09649 20.2936 7.35846C20.2936 8.61597 19.2837 9.63284 18.0471 9.63284C16.8061 9.63284 15.8006 8.61596 15.8006 7.35846C15.8006 6.09649 16.8061 5.07013 18.0471 5.07013Z" fill="url(#paint0_linear)"/>
<path d="M38.2372 14.1954V19.5116C38.2372 23.6332 34.7429 27.1022 30.7583 27.1022H18.8004C15.5249 27.1022 12.8145 29.9055 12.8145 33.1858V44.5856C12.8145 47.83 15.6357 49.7384 18.8004 50.6692C22.59 51.7835 26.2241 51.9849 30.7583 50.6692C33.7723 49.7965 36.7442 48.0403 36.7442 44.5856V40.0229H24.7863V38.502H36.7442H42.7302C46.2095 38.502 47.5061 36.075 48.7161 32.4323C49.966 28.6822 49.9128 25.0758 48.7161 20.2651C47.8562 16.8014 46.214 14.1954 42.7302 14.1954H38.2372ZM31.5118 43.0647C32.7528 43.0647 33.7582 44.0815 33.7582 45.339C33.7582 46.601 32.7528 47.6274 31.5118 47.6274C30.2752 47.6274 29.2653 46.601 29.2653 45.339C29.2653 44.0815 30.2752 43.0647 31.5118 43.0647Z" fill="url(#paint1_linear)"/>
<path d="M204.482 10.5589H205.18V6.18482H206.832V5.66345H202.83V6.18482H204.482V10.5589ZM207.45 10.5589H208.046V6.56399L209.339 10.5584H210.003L211.35 6.57753V10.5589H212V5.66345H211.14L209.668 9.85739L208.412 5.66345H207.45V10.5589Z" fill="#24262D"/>
<path opacity="0.44382" d="M40.9655 58.4188C40.9655 58.8273 40.5505 59.2319 39.7443 59.6093C38.938 59.9867 37.7563 60.3297 36.2665 60.6186C34.7768 60.9074 33.0082 61.1366 31.0617 61.2929C29.1152 61.4493 27.029 61.5297 24.9222 61.5297C22.8154 61.5297 20.7292 61.4493 18.7827 61.2929C16.8362 61.1366 15.0676 60.9074 13.5779 60.6186C12.0881 60.3297 10.9064 59.9867 10.1001 59.6093C9.29388 59.2319 8.87891 58.8273 8.87891 58.4188C8.87891 58.0103 9.29388 57.6057 10.1001 57.2283C10.9064 56.8509 12.0881 56.5079 13.5779 56.219C15.0676 55.9302 16.8362 55.701 18.7827 55.5447C20.7292 55.3883 22.8154 55.3079 24.9222 55.3079C27.029 55.3079 29.1152 55.3883 31.0617 55.5447C33.0082 55.701 34.7768 55.9302 36.2665 56.219C37.7563 56.5079 38.938 56.8509 39.7443 57.2283C40.5505 57.6057 40.9655 58.0103 40.9655 58.4188Z" fill="url(#paint2_radial)"/>
<defs>
<linearGradient id="paint0_linear" x1="3.90745e-08" y1="1.40002" x2="27.6058" y2="24.924" gradientUnits="userSpaceOnUse">
<stop stop-color="#5A9FD4"/>
<stop offset="1" stop-color="#306998"/>
</linearGradient>
<linearGradient id="paint1_linear" x1="31.2241" y1="44.9554" x2="21.3202" y2="31.0771" gradientUnits="userSpaceOnUse">
<stop stop-color="#FFD43B"/>
<stop offset="1" stop-color="#FFE873"/>
</linearGradient>
<radialGradient id="paint2_radial" cx="0" cy="0" r="1" gradientUnits="userSpaceOnUse" gradientTransform="translate(24.9222 58.4188) rotate(-90) scale(3.11093 13.6739)">
<stop stop-color="#B8B8B8" stop-opacity="0.498039"/>
<stop offset="1" stop-color="#7F7F7F" stop-opacity="0"/>
</radialGradient>
</defs>
</svg>
