<svg width="212" height="47" viewBox="0 0 212 47" fill="none" xmlns="http://www.w3.org/2000/svg">
<path d="M18.3163 46.5298C14.7601 46.5298 11.3111 46.0585 7.96919 45.1159C4.67012 44.1305 2.01372 42.8665 0 41.3241L3.53472 33.4835C5.46275 34.8974 7.75497 36.0327 10.4114 36.8896C13.0678 37.7466 15.7242 38.175 18.3806 38.175C21.3369 38.175 23.522 37.7466 24.9359 36.8896C26.3498 35.9899 27.0567 34.8117 27.0567 33.3549C27.0567 32.2838 26.6282 31.4055 25.7713 30.72C24.9573 29.9916 23.8862 29.4132 22.558 28.9847C21.2726 28.5563 19.516 28.085 17.288 27.5708C13.8604 26.7568 11.054 25.9427 8.86894 25.1287C6.68384 24.3146 4.79865 23.0078 3.21338 21.2083C1.67096 19.4088 0.899748 17.0095 0.899748 14.0104C0.899748 11.3968 1.60669 9.04032 3.02058 6.94091C4.43447 4.79865 6.5553 3.10627 9.38308 1.86376C12.2537 0.621253 15.7456 0 19.8587 0C22.7293 0 25.5357 0.34276 28.2778 1.02828C31.0199 1.7138 33.4192 2.69924 35.4758 3.98459L32.2624 11.8895C28.1064 9.53304 23.9504 8.3548 19.7944 8.3548C16.881 8.3548 14.7173 8.82609 13.3034 9.76869C11.9324 10.7113 11.2468 11.9538 11.2468 13.4962C11.2468 15.0386 12.0395 16.1955 13.6247 16.9667C15.2529 17.695 17.7165 18.4234 21.0155 19.1518C24.4431 19.9658 27.2495 20.7799 29.4346 21.5939C31.6197 22.408 33.4835 23.6934 35.0259 25.45C36.6112 27.2067 37.4038 29.5846 37.4038 32.5837C37.4038 35.1544 36.6754 37.5109 35.2187 39.6532C33.8048 41.7526 31.6625 43.4235 28.7919 44.666C25.9213 45.9085 22.4294 46.5298 18.3163 46.5298Z" fill="#FF006B"/>
<path d="M60.5206 46.2727C56.8359 46.2727 53.5154 45.5229 50.5591 44.0234C47.6456 42.4809 45.3534 40.3601 43.6824 37.6609C42.0543 34.9616 41.2403 31.8982 41.2403 28.4706C41.2403 25.043 42.0543 21.9795 43.6824 19.2803C45.3534 16.5811 47.6456 14.4817 50.5591 12.9821C53.5154 11.4396 56.8359 10.6684 60.5206 10.6684C64.1624 10.6684 67.3329 11.4396 70.0322 12.9821C72.7743 14.4817 74.7666 16.6453 76.0091 19.4731L68.2327 23.6505C66.4332 20.48 63.8411 18.8947 60.4563 18.8947C57.8428 18.8947 55.6791 19.7516 53.9653 21.4654C52.2515 23.1792 51.3946 25.5143 51.3946 28.4706C51.3946 31.4269 52.2515 33.762 53.9653 35.4758C55.6791 37.1896 57.8428 38.0465 60.4563 38.0465C63.8839 38.0465 66.476 36.4612 68.2327 33.2907L76.0091 37.5323C74.7666 40.2744 72.7743 42.4167 70.0322 43.9591C67.3329 45.5015 64.1624 46.2727 60.5206 46.2727Z" fill="#FF006B"/>
<path d="M91.3575 15.7456C92.5572 14.0746 94.1639 12.8107 96.1776 11.9538C98.2342 11.0969 100.591 10.6684 103.247 10.6684V19.923C102.133 19.8373 101.383 19.7944 100.998 19.7944C98.127 19.7944 95.8777 20.6085 94.2496 22.2366C92.6214 23.8219 91.8074 26.2212 91.8074 29.4346V45.7586H81.7816V11.1826H91.3575V15.7456Z" fill="#FF006B"/>
<path d="M144.292 11.1826V45.7586H134.781V41.6455C133.453 43.145 131.867 44.3019 130.025 45.1159C128.183 45.8871 126.19 46.2727 124.048 46.2727C119.507 46.2727 115.908 44.966 113.251 42.3524C110.595 39.7388 109.267 35.8614 109.267 30.72V11.1826H119.292V29.2418C119.292 34.8117 121.627 37.5966 126.298 37.5966C128.697 37.5966 130.625 36.8254 132.082 35.283C133.538 33.6977 134.267 31.3626 134.267 28.2778V11.1826H144.292Z" fill="#FF006B"/>
<path d="M197.861 10.6684C202.188 10.6684 205.616 11.9538 208.144 14.5245C210.715 17.0524 212 20.8656 212 25.9641V45.7586H201.974V27.5066C201.974 24.7645 201.396 22.7293 200.239 21.4011C199.125 20.0301 197.518 19.3446 195.419 19.3446C193.062 19.3446 191.199 20.1158 189.828 21.6582C188.457 23.1578 187.771 25.4072 187.771 28.4063V45.7586H177.745V27.5066C177.745 22.0652 175.56 19.3446 171.19 19.3446C168.876 19.3446 167.034 20.1158 165.663 21.6582C164.292 23.1578 163.606 25.4072 163.606 28.4063V45.7586H153.581V11.1826H163.157V15.1672C164.442 13.7104 166.006 12.5965 167.848 11.8253C169.733 11.054 171.79 10.6684 174.018 10.6684C176.46 10.6684 178.666 11.1612 180.637 12.1466C182.608 13.0892 184.194 14.4816 185.393 16.324C186.807 14.5245 188.585 13.132 190.727 12.1466C192.912 11.1612 195.29 10.6684 197.861 10.6684Z" fill="#FF006B"/>
</svg>
