<svg width="24" height="24" viewBox="0 0 24 24" fill="none" xmlns="http://www.w3.org/2000/svg">
<path fill-rule="evenodd" clip-rule="evenodd" d="M1.88279 4.77297V4.77296V4.77293C1.88383 4.64971 1.88473 4.54241 1.88472 4.4397C1.99961 4.38494 2.10037 4.33633 2.19198 4.29214C2.70266 4.04578 2.92953 3.93633 3.73922 3.6607C5.8109 2.95558 7.85234 2.12351 9.8249 1.17599C11.4792 0.381345 12.9579 0.389263 14.6273 1.15702C16.6077 2.06787 18.6618 2.82248 20.7122 3.57572L20.7122 3.57572L20.7125 3.57581C20.9813 3.67458 21.2501 3.77332 21.5187 3.87238C21.9784 4.04193 22.08 4.0797 22.5946 4.3197C22.6195 4.5794 22.6106 4.78097 22.6022 4.97166L22.6022 4.97179C22.5989 5.04539 22.5957 5.11738 22.5946 5.19046C22.4796 12.5777 19.5492 18.5438 13.7064 23.0901C12.6979 23.8749 11.8647 23.8922 10.8087 23.1441C4.9409 18.9878 2.3801 13.1294 1.88474 6.17687C1.87673 5.49018 1.88018 5.08162 1.88279 4.77297ZM12.9733 10.8717C13.5337 10.5993 13.9199 10.0247 13.9199 9.35977C13.9199 8.43193 13.1677 7.67977 12.2399 7.67977C11.3121 7.67977 10.5599 8.43193 10.5599 9.35977C10.5599 10.0246 10.9461 10.5992 11.5063 10.8716L10.7998 14.6397H13.6798L12.9733 10.8717Z" fill="#1A35B6"/>
</svg>
