<svg width="170" height="30" viewBox="0 0 170 30" fill="none" xmlns="http://www.w3.org/2000/svg">
<path d="M11.8 29.12C9.53333 29.12 7.33333 28.84 5.2 28.28C3.06667 27.72 1.33333 26.9733 0 26.04L2.6 20.2C3.85333 21.0267 5.30667 21.6933 6.96 22.2C8.61333 22.7067 10.24 22.96 11.84 22.96C14.88 22.96 16.4 22.2 16.4 20.68C16.4 19.88 15.96 19.2933 15.08 18.92C14.2267 18.52 12.84 18.1067 10.92 17.68C8.81333 17.2267 7.05333 16.7467 5.64 16.24C4.22667 15.7067 3.01333 14.8667 2 13.72C0.986667 12.5733 0.48 11.0267 0.48 9.08C0.48 7.37333 0.946667 5.84 1.88 4.48C2.81333 3.09333 4.2 2 6.04 1.2C7.90667 0.4 10.1867 0 12.88 0C14.72 0 16.5333 0.213334 18.32 0.640001C20.1067 1.04 21.68 1.64 23.04 2.44L20.6 8.32C17.9333 6.88 15.3467 6.16 12.84 6.16C11.2667 6.16 10.12 6.4 9.4 6.88C8.68 7.33333 8.32 7.93333 8.32 8.68C8.32 9.42667 8.74667 9.98667 9.6 10.36C10.4533 10.7333 11.8267 11.12 13.72 11.52C15.8533 11.9733 17.6133 12.4667 19 13C20.4133 13.5067 21.6267 14.3333 22.64 15.48C23.68 16.6 24.2 18.1333 24.2 20.08C24.2 21.76 23.7333 23.28 22.8 24.64C21.8667 26 20.4667 27.0933 18.6 27.92C16.7333 28.72 14.4667 29.12 11.8 29.12Z" fill="#101633"/>
<path d="M42.4584 27.68C41.8184 28.08 41.0318 28.3867 40.0984 28.6C39.1918 28.8133 38.2184 28.92 37.1784 28.92C34.3518 28.92 32.1784 28.2267 30.6584 26.84C29.1384 25.4533 28.3784 23.3867 28.3784 20.64V13.36H25.2184V7.68H28.3784V2.04H35.9784V7.68H40.9384V13.36H35.9784V20.56C35.9784 21.3333 36.1784 21.9467 36.5784 22.4C37.0051 22.8267 37.5651 23.04 38.2584 23.04C39.1384 23.04 39.9118 22.8133 40.5784 22.36L42.4584 27.68Z" fill="#101633"/>
<path d="M54.6291 6.52C58.2291 6.52 60.9757 7.34667 62.8691 9C64.7624 10.6267 65.7091 13.1333 65.7091 16.52V28.56H58.6291V25.76C57.5357 27.8667 55.4024 28.92 52.2291 28.92C50.5491 28.92 49.0957 28.6267 47.8691 28.04C46.6424 27.4533 45.7091 26.6667 45.0691 25.68C44.4557 24.6667 44.1491 23.52 44.1491 22.24C44.1491 20.1867 44.9357 18.6 46.5091 17.48C48.0824 16.3333 50.5091 15.76 53.7891 15.76H58.1091C57.9757 13.4667 56.4424 12.32 53.5091 12.32C52.4691 12.32 51.4157 12.4933 50.3491 12.84C49.2824 13.16 48.3757 13.6133 47.6291 14.2L45.0691 9.04C46.2691 8.24 47.7224 7.62667 49.4291 7.2C51.1624 6.74667 52.8957 6.52 54.6291 6.52ZM54.3491 24.12C55.2291 24.12 56.0024 23.9067 56.6691 23.48C57.3357 23.0533 57.8157 22.4267 58.1091 21.6V19.72H54.8291C52.6157 19.72 51.5091 20.4533 51.5091 21.92C51.5091 22.5867 51.7624 23.12 52.2691 23.52C52.7757 23.92 53.4691 24.12 54.3491 24.12Z" fill="#101633"/>
<path d="M77.7463 9.48C78.5196 8.49333 79.5196 7.76 80.7463 7.28C81.9996 6.77333 83.4263 6.52 85.0263 6.52V13.36C84.3329 13.28 83.7596 13.24 83.3063 13.24C81.6796 13.24 80.3996 13.68 79.4663 14.56C78.5596 15.44 78.1063 16.7867 78.1063 18.6V28.56H70.5063V6.88H77.7463V9.48Z" fill="#101633"/>
<path d="M88.4834 0.559999H101.723C104.79 0.559999 107.51 1.13333 109.883 2.28C112.257 3.42667 114.097 5.05333 115.403 7.16C116.71 9.26667 117.363 11.7333 117.363 14.56C117.363 17.3867 116.71 19.8533 115.403 21.96C114.097 24.0667 112.257 25.6933 109.883 26.84C107.51 27.9867 104.79 28.56 101.723 28.56H88.4834V0.559999ZM101.403 22.24C103.803 22.24 105.723 21.56 107.163 20.2C108.63 18.84 109.363 16.96 109.363 14.56C109.363 12.16 108.63 10.28 107.163 8.92C105.723 7.56 103.803 6.88 101.403 6.88H96.4034V22.24H101.403Z" fill="#101633"/>
<path d="M143.33 17.76C143.33 17.8133 143.29 18.44 143.21 19.64H127.45C127.77 20.76 128.384 21.6267 129.29 22.24C130.224 22.8267 131.384 23.12 132.77 23.12C133.81 23.12 134.704 22.9733 135.45 22.68C136.224 22.3867 136.997 21.9067 137.77 21.24L141.77 25.4C139.664 27.7467 136.584 28.92 132.53 28.92C129.997 28.92 127.77 28.44 125.85 27.48C123.93 26.52 122.437 25.1867 121.37 23.48C120.33 21.7733 119.81 19.84 119.81 17.68C119.81 15.5467 120.317 13.64 121.33 11.96C122.37 10.2533 123.797 8.92 125.61 7.96C127.424 7 129.464 6.52 131.73 6.52C133.89 6.52 135.85 6.97333 137.61 7.88C139.37 8.76 140.757 10.0533 141.77 11.76C142.81 13.44 143.33 15.44 143.33 17.76ZM131.77 11.92C130.597 11.92 129.61 12.2533 128.81 12.92C128.037 13.5867 127.544 14.4933 127.33 15.64H136.21C135.997 14.4933 135.49 13.5867 134.69 12.92C133.917 12.2533 132.944 11.92 131.77 11.92Z" fill="#101633"/>
<path d="M169.284 6.88L160.324 28.56H152.484L143.564 6.88H151.364L156.564 20.12L162.044 6.88H169.284Z" fill="#101633"/>
</svg>
